<?xml version="1.0" standalone="no"?>
<!DOCTYPE svg PUBLIC "-//W3C//DTD SVG 20010904//EN"
 "http://www.w3.org/TR/2001/REC-SVG-20010904/DTD/svg10.dtd">
<svg version="1.0" xmlns="http://www.w3.org/2000/svg"
 width="1170.000000pt" height="740.000000pt" viewBox="0 0 1170.000000 740.000000"
 preserveAspectRatio="xMidYMid meet">

<g transform="translate(0.000000,740.000000) scale(0.100000,-0.100000)"
fill="#000000" stroke="none">
<path d="M780 7383 c25 -10 35 -10 41 -2 4 7 21 9 48 4 27 -4 41 -3 41 4 0 7
-30 10 -81 9 -80 -1 -81 -1 -49 -15z"/>
<path d="M1820 7387 c0 -7 4 -17 10 -23 5 -5 12 -33 14 -61 9 -106 18 -144 30
-133 9 6 16 6 24 -2 9 -9 12 -9 12 0 0 8 15 3 37 -13 21 -14 43 -25 50 -25 19
0 82 -44 83 -57 0 -20 -46 -26 -141 -20 -68 5 -98 12 -135 33 -26 14 -61 31
-78 36 -53 16 -141 37 -144 33 -2 -1 43 -26 100 -54 87 -43 106 -57 125 -90
18 -32 22 -49 17 -85 -4 -28 -3 -46 3 -46 6 0 13 -22 17 -49 7 -55 39 -103 61
-94 8 3 15 0 15 -5 0 -6 8 -11 18 -11 35 0 118 -12 137 -20 62 -26 79 -31 105
-31 19 0 29 -5 28 -12 -2 -8 6 -12 22 -11 14 2 50 4 80 7 59 4 86 12 110 31 8
7 37 20 63 29 72 24 105 43 112 65 6 20 86 71 110 71 6 0 20 9 30 20 13 14 25
18 43 13 21 -5 24 -3 19 11 -8 20 1 21 23 1 13 -12 29 -14 71 -8 49 7 54 11
57 35 3 26 4 26 37 12 19 -8 39 -14 45 -14 19 0 10 21 -12 30 l-23 9 23 0 c12
1 22 -3 22 -9 0 -6 47 -10 120 -10 68 0 120 4 120 9 0 18 548 -1 560 -19 3 -5
34 -11 70 -15 35 -3 68 -9 72 -11 33 -21 237 -60 358 -69 19 -2 69 -10 110
-19 41 -9 102 -20 136 -26 33 -5 75 -16 93 -23 l33 -14 -29 -11 c-29 -12 -263
-10 -294 3 -9 3 -36 8 -60 9 -205 17 -510 55 -619 78 -145 30 -173 32 -206 16
-20 -10 -41 -12 -69 -7 -88 16 -211 40 -235 45 -14 3 -38 7 -53 10 -15 2 -37
9 -48 15 -11 6 -23 9 -25 6 -8 -8 53 -42 156 -87 52 -24 106 -51 120 -60 14
-10 35 -21 48 -25 13 -4 46 -29 74 -57 27 -27 52 -48 54 -46 2 2 -8 21 -21 41
-27 39 -32 61 -12 55 6 -3 30 -38 52 -79 22 -41 54 -88 70 -105 17 -16 35 -37
40 -46 7 -13 30 -18 90 -23 44 -3 127 -10 185 -15 58 -5 164 -14 235 -20 72
-6 221 -20 332 -31 111 -11 215 -21 230 -22 l28 -2 0 225 c0 124 -2 329 -5
455 l-5 230 -70 7 c-135 14 -570 69 -626 78 -33 6 -486 10 -1142 10 -885 0
-1087 -2 -1087 -13z m2300 -53 c0 -2 -14 -4 -31 -4 -16 0 -28 4 -25 9 5 8 56
3 56 -5z m-1880 -34 c0 -13 -20 -13 -40 0 -12 8 -9 10 13 10 15 0 27 -4 27
-10z m1225 -96 c13 -5 14 -8 3 -15 -9 -6 -2 -9 20 -9 17 0 32 5 32 10 0 18
442 -11 610 -39 63 -11 149 -23 190 -26 41 -3 93 -10 115 -15 22 -5 65 -14 96
-20 48 -9 55 -14 54 -33 -2 -21 -5 -22 -111 -19 -110 3 -243 16 -543 53 -193
24 -294 43 -299 58 -2 7 -38 11 -93 11 -50 0 -95 5 -102 10 -7 6 -21 17 -32
25 -19 14 -18 14 12 15 17 0 39 -3 48 -6z m-105 -24 c0 -5 -6 -10 -14 -10 -8
0 -18 5 -21 10 -3 6 3 10 14 10 12 0 21 -4 21 -10z m-845 -150 c45 -7 41 -7
-40 -9 -49 0 -97 4 -105 9 -18 12 70 12 145 0z m1155 -439 c-5 -11 -15 -23
-22 -27 -7 -5 -8 -2 -3 7 21 37 44 55 25 20z"/>
<path d="M9870 7383 c121 -27 165 -33 284 -37 65 -3 124 -10 130 -16 5 -5 22
-10 36 -10 14 0 30 -4 36 -10 5 -5 38 -11 72 -14 35 -2 67 -8 70 -12 4 -4 2
-4 -5 -1 -6 4 -13 3 -15 -3 -3 -9 -79 -23 -187 -36 -24 -2 -74 -9 -110 -14
-36 -5 -70 -10 -76 -10 -5 0 -3 -4 4 -9 12 -8 10 -11 -10 -15 -32 -8 -228 -36
-248 -36 -22 0 -2 -15 37 -28 21 -7 32 -8 32 -1 0 6 8 9 18 7 9 -2 17 -10 17
-18 0 -8 16 -19 36 -25 20 -5 43 -15 50 -22 20 -16 206 -58 319 -72 120 -15
193 -33 217 -55 l25 -21 -39 -6 c-34 -6 -32 -6 22 -9 56 -2 57 -3 25 -11 -71
-16 -126 -28 -170 -37 -74 -14 229 -3 640 23 206 13 430 27 498 31 110 6 122
9 122 25 0 11 -4 19 -10 19 -5 0 -10 6 -10 14 0 8 -6 17 -12 20 -7 3 -3 3 10
0 l22 -5 0 205 0 206 -947 -1 c-854 -1 -942 -3 -883 -16z m1547 -398 c-3 -7
-1 -17 5 -23 15 -15 3 -19 -96 -32 -44 -6 -82 -7 -85 -2 -12 17 -40 20 -51 6
-16 -19 -36 -18 -44 2 -8 20 -10 17 31 38 48 24 94 31 174 28 52 -3 69 -7 66
-17z m226 -22 c-7 -2 -21 -2 -30 0 -10 3 -4 5 12 5 17 0 24 -2 18 -5z"/>
<path d="M8058 7323 c7 -3 16 -2 19 1 4 3 -2 6 -13 5 -11 0 -14 -3 -6 -6z"/>
<path d="M9012 7299 c-13 -5 -42 -11 -65 -14 -44 -5 -169 -36 -177 -45 -3 -3
-16 -7 -30 -8 -14 -2 -49 -15 -78 -28 -29 -13 -57 -24 -62 -24 -6 0 -10 -4
-10 -10 0 -5 -7 -7 -15 -4 -8 4 -17 -1 -21 -10 -4 -10 -18 -16 -35 -16 -16 0
-57 -17 -92 -38 -34 -20 -81 -46 -104 -57 -24 -11 -43 -26 -43 -33 0 -7 -5
-10 -10 -7 -6 3 -23 -3 -39 -14 -16 -12 -34 -21 -40 -21 -6 0 -11 -6 -11 -14
0 -8 -10 -16 -22 -18 -16 -2 -22 -9 -21 -23 2 -11 -5 -37 -14 -58 -13 -29 -14
-42 -5 -62 6 -14 19 -25 28 -25 13 0 14 -3 4 -15 -7 -8 -10 -25 -6 -40 7 -26
20 -32 31 -15 5 8 11 7 21 0 7 -7 19 -10 26 -8 7 3 18 -2 24 -11 10 -12 15
-13 27 -3 15 13 29 10 82 -13 89 -40 106 -45 116 -40 6 4 18 0 28 -10 12 -10
27 -14 44 -10 14 4 28 2 31 -4 13 -20 27 -12 17 8 -9 16 -8 18 9 14 14 -4 19
-11 15 -23 -3 -9 1 -23 10 -30 9 -8 15 -8 15 -2 0 18 30 41 45 36 10 -4 13
-14 9 -30 -6 -25 10 -34 19 -11 3 7 6 5 6 -5 1 -24 28 -23 41 2 13 24 30 26
30 5 0 -9 9 -15 24 -15 13 0 29 -6 35 -13 11 -14 45 -16 57 -4 4 3 16 2 27 -4
14 -8 18 -8 12 1 -4 6 -17 15 -29 20 -19 7 -19 9 -3 15 25 10 47 -12 47 -49 0
-42 12 -57 41 -54 20 3 25 -3 33 -35 7 -26 6 -41 -1 -45 -5 -4 -18 -22 -27
-40 -13 -26 -15 -37 -6 -48 7 -7 10 -20 7 -28 -3 -8 -1 -16 4 -18 6 -2 -5 -21
-24 -42 -31 -34 -36 -36 -45 -20 -8 15 -13 12 -31 -24 -12 -23 -17 -42 -12
-42 5 0 13 5 16 10 3 6 15 10 25 10 11 0 24 9 30 20 8 14 25 21 70 26 33 4 60
11 60 15 0 5 6 9 13 9 9 0 14 -12 15 -30 1 -26 -4 -32 -28 -37 -26 -5 -28 -8
-19 -25 13 -24 -7 -56 -25 -38 -5 5 -21 10 -35 11 l-26 0 23 16 c25 18 29 33
7 33 -8 0 -15 -6 -15 -12 0 -10 -3 -9 -9 1 -7 11 -10 9 -16 -8 -3 -11 -15 -26
-26 -31 -10 -6 -19 -15 -19 -21 0 -6 7 -6 19 1 31 16 51 12 51 -11 0 -18 4
-20 29 -14 17 4 32 2 36 -5 10 -17 1 -22 -40 -22 -30 0 -34 -2 -24 -14 6 -8
17 -14 23 -13 43 5 53 -2 59 -38 10 -63 12 -70 26 -87 7 -8 9 -21 5 -27 -5 -9
-10 -7 -20 5 -7 10 -15 13 -18 7 -4 -5 -2 -12 4 -16 15 -9 12 -25 -4 -19 -21
8 -32 -17 -13 -31 22 -16 8 -69 -19 -72 -17 -3 -18 -2 -1 5 17 7 17 9 -3 32
-20 22 -22 23 -18 5 2 -17 -2 -20 -28 -18 -21 2 -34 -2 -38 -12 -3 -8 -13 -15
-22 -15 -14 0 -14 3 -4 16 11 12 10 18 -4 32 -16 16 -18 16 -30 0 -17 -23 -26
-23 -26 2 0 27 -18 25 -22 -2 -2 -17 -9 -22 -26 -21 -26 3 -30 -13 -4 -21 9
-3 5 -4 -10 -2 -20 2 -29 -2 -33 -15 -5 -13 -16 -19 -37 -19 -25 0 -28 -2 -19
-14 10 -12 2 -16 -46 -27 -78 -16 -229 -17 -245 -1 -7 7 -21 12 -33 12 -27 0
-133 52 -170 84 l-30 27 60 -7 c33 -3 74 -14 90 -24 49 -30 128 -56 162 -54
63 3 103 15 103 29 0 19 -42 46 -88 56 -115 24 -173 39 -191 49 -12 6 -21 8
-21 4 0 -3 -10 0 -22 8 -29 18 -74 31 -113 32 -16 1 -29 6 -28 11 1 6 -10 12
-25 13 -14 1 -28 6 -31 10 -3 4 -27 9 -54 10 -26 1 -56 6 -67 12 -16 9 -25 6
-46 -15 -14 -14 -23 -32 -20 -40 3 -9 0 -12 -10 -8 -7 3 -14 12 -14 20 0 9 -6
13 -14 10 -20 -8 -75 62 -120 151 -39 78 -52 90 -42 40 l6 -33 -21 22 c-18 18
-20 25 -10 37 8 10 9 21 3 33 -5 10 -7 24 -5 31 3 6 0 12 -6 12 -15 0 -61 -22
-61 -29 0 -3 18 -35 39 -71 22 -36 49 -82 61 -102 11 -21 36 -54 56 -73 26
-26 38 -48 42 -77 4 -35 3 -40 -11 -35 -12 4 -17 -5 -25 -46 -5 -29 -13 -60
-17 -69 -14 -33 14 -19 44 22 16 22 32 60 35 85 4 25 10 45 13 45 10 0 82 -55
91 -71 9 -14 5 -14 -28 2 -22 11 -44 19 -51 19 -15 0 -4 -164 16 -236 12 -43
71 -136 96 -154 10 -7 28 -121 22 -137 -8 -20 -49 -26 -84 -14 -44 15 -50 5
-8 -13 46 -19 60 -21 86 -12 24 8 48 70 35 90 -3 6 -8 21 -10 34 -2 20 0 22
17 12 11 -6 26 -20 32 -32 8 -14 13 -17 18 -9 6 9 15 9 35 1 71 -27 114 -2
123 72 7 50 15 64 46 71 12 3 67 17 122 31 55 14 104 26 110 26 21 0 -51 -49
-72 -50 -16 0 -21 -4 -17 -15 8 -19 19 -19 36 -1 8 7 34 17 59 21 24 4 88 20
141 36 53 16 130 34 170 40 40 6 88 17 106 25 18 8 46 14 63 14 17 0 39 5 50
10 15 9 19 7 19 -6 0 -11 6 -15 20 -11 11 3 20 1 20 -4 0 -4 6 -6 14 -3 11 4
13 0 9 -16 -3 -12 -11 -19 -18 -16 -18 6 -26 -19 -12 -33 8 -8 8 -11 0 -11
-24 0 -44 -32 -38 -59 4 -21 0 -32 -21 -50 -29 -25 -46 -22 -20 4 37 37 12 34
-30 -4 -26 -23 -54 -41 -63 -42 -12 0 -11 -2 4 -8 19 -8 19 -8 -5 -16 -15 -5
-25 -4 -28 4 -2 6 -8 11 -14 11 -6 0 -7 -7 -4 -16 3 -8 2 -12 -4 -9 -6 3 -10
1 -10 -4 0 -6 -10 -11 -23 -11 -12 0 -35 -13 -50 -30 -16 -16 -35 -30 -42 -30
-19 0 -30 -21 -16 -29 18 -11 2 -66 -22 -77 -12 -5 -21 -17 -21 -27 1 -10 -1
-16 -4 -13 -10 11 -31 -15 -25 -31 6 -14 -57 -83 -76 -83 -9 0 -36 -59 -30
-64 2 -2 13 -8 24 -15 11 -7 13 -10 5 -8 -8 2 -20 -5 -27 -17 -11 -20 -12 -19
-14 14 -1 25 -3 28 -6 12 -5 -24 -28 -25 -28 -1 0 24 -30 16 -33 -9 -5 -30
-48 -48 -78 -31 -28 14 -44 5 -37 -21 6 -23 -22 -39 -40 -21 -12 12 -33 -14
-64 -77 -15 -31 -15 -34 3 -47 10 -7 15 -17 11 -22 -5 -4 -15 1 -23 11 -12 17
-19 18 -51 10 -30 -7 -37 -14 -40 -39 -5 -36 -8 -39 -25 -29 -7 5 -21 7 -30 6
-10 -2 -18 2 -18 7 0 20 -31 11 -39 -11 -7 -19 -16 -22 -63 -22 -31 -1 -54 2
-51 7 2 4 -4 7 -14 7 -11 0 -24 5 -29 10 -13 13 -46 2 -38 -12 4 -6 1 -9 -7
-6 -8 3 -16 15 -17 29 -5 33 -31 59 -59 59 l-24 0 18 -31 c24 -42 107 -103
163 -120 29 -9 95 -14 188 -14 139 0 143 0 137 -20 -15 -45 -22 -134 -14 -181
4 -27 9 -69 10 -94 l2 -45 7 55 c5 30 8 89 9 131 1 42 4 97 7 123 6 40 10 47
38 55 17 6 62 21 101 35 63 23 101 25 115 7 3 -4 33 -28 67 -54 55 -42 67 -47
113 -47 54 0 118 29 156 71 l19 22 -34 -18 c-46 -23 -133 -28 -160 -9 -30 22
-26 32 17 39 54 9 82 22 82 40 0 8 9 15 20 15 25 0 130 58 130 72 0 5 5 6 10
3 6 -4 34 14 63 39 28 26 58 44 65 41 7 -2 17 5 22 18 5 13 9 16 10 7 1 -9 5
-6 10 8 5 12 18 22 28 22 10 0 23 5 30 12 9 9 12 4 13 -23 1 -18 1 -40 0 -46
-3 -18 2 -17 45 18 73 57 156 143 197 203 39 58 81 150 75 166 -2 4 -34 -3
-73 -16 -91 -31 -177 -32 -205 -4 -12 12 -25 31 -31 43 -5 12 -16 33 -24 47
-8 14 -15 42 -15 62 0 20 -5 40 -10 43 -7 4 -5 17 5 36 8 16 22 42 30 59 14
27 14 29 0 24 -23 -9 -19 29 5 51 11 10 20 24 20 32 0 7 7 13 15 13 9 0 20 12
25 26 6 14 14 23 20 19 5 -3 26 2 47 11 21 9 56 17 78 19 22 2 76 7 120 11
134 12 152 10 185 -20 17 -14 30 -33 30 -41 0 -23 24 -18 35 8 6 12 25 49 43
82 17 33 36 71 42 85 5 14 14 32 19 40 29 51 72 158 95 238 27 95 45 261 47
447 2 118 -3 147 -35 230 -15 39 -30 78 -33 88 -3 9 -9 17 -14 17 -5 0 -9 6
-9 13 0 8 -9 22 -20 32 -11 10 -20 24 -20 32 0 7 -7 13 -15 13 -8 0 -19 9 -25
20 -6 11 -8 20 -5 20 4 0 -2 8 -52 66 -10 11 -28 26 -41 33 -14 8 -21 18 -18
27 4 10 -4 18 -22 25 -71 25 -163 69 -191 91 -13 10 -27 15 -31 13 -5 -3 -23
3 -42 14 -18 11 -53 25 -78 31 -25 6 -58 17 -75 24 -17 7 -79 14 -140 15 -60
2 -112 4 -115 6 -3 1 -15 -1 -28 -6z m-315 -115 c-3 -3 -12 -4 -19 -1 -8 3 -5
6 6 6 11 1 17 -2 13 -5z m377 -817 c-7 -19 -34 -31 -34 -15 0 10 32 39 38 34
1 -2 0 -10 -4 -19z m36 -26 c0 -31 -14 -49 -25 -32 -8 13 5 61 16 61 5 0 9
-13 9 -29z m70 -50 c0 -6 -4 -13 -10 -16 -5 -3 -10 1 -10 9 0 9 5 16 10 16 6
0 10 -4 10 -9z m-96 -39 c2 -4 1 -14 -4 -22 -7 -11 -12 -12 -21 -3 -6 6 -8 16
-5 22 8 13 23 14 30 3z m76 -37 c0 -8 -4 -15 -10 -15 -5 0 -10 7 -10 15 0 8 5
15 10 15 6 0 10 -7 10 -15z m162 -55 c-6 -16 -11 -20 -16 -11 -4 6 -2 19 5 27
16 20 21 12 11 -16z m-68 -24 c-3 -9 -10 -13 -16 -10 -5 3 -4 12 3 20 15 18
22 13 13 -10z m-1593 -8 c11 -21 11 -22 -4 -9 -10 7 -17 17 -17 22 0 15 9 10
21 -13z m1839 -198 c0 -5 -4 -10 -10 -10 -5 0 -10 5 -10 10 0 6 5 10 10 10 6
0 10 -4 10 -10z m-323 -15 c2 -5 -8 -11 -22 -11 -16 -1 -25 3 -25 13 0 16 41
15 47 -2z m173 0 c0 -8 -4 -15 -10 -15 -5 0 -10 7 -10 15 0 8 5 15 10 15 6 0
10 -7 10 -15z m-170 -75 c0 -5 -4 -10 -10 -10 -5 0 -10 5 -10 10 0 6 5 10 10
10 6 0 10 -4 10 -10z m130 -10 c0 -5 -5 -10 -11 -10 -5 0 -7 5 -4 10 3 6 8 10
11 10 2 0 4 -4 4 -10z m-150 -50 c0 -5 -2 -10 -4 -10 -3 0 -8 5 -11 10 -3 6
-1 10 4 10 6 0 11 -4 11 -10z m-1059 -60 c12 0 19 -7 19 -19 0 -24 -31 -18
-57 12 -17 20 -17 20 0 14 10 -4 27 -7 38 -7z m869 -20 c-8 -5 -22 -9 -30 -9
-10 0 -8 3 5 9 27 12 43 12 25 0z m-913 -46 c7 -3 38 -30 68 -59 40 -38 59
-64 66 -92 11 -48 1 -173 -15 -173 -24 0 -140 77 -178 118 -37 41 -39 47 -35
90 3 26 13 71 23 99 17 51 19 52 39 38 11 -9 25 -18 32 -21z m251 -1 c56 -28
70 -39 53 -41 -45 -7 -169 48 -156 69 10 15 24 11 103 -28z m822 -63 c0 -5 -5
-10 -11 -10 -5 0 -7 5 -4 10 3 6 8 10 11 10 2 0 4 -4 4 -10z m25 -373 c-6 -23
-45 -46 -45 -27 0 21 13 38 26 33 9 -3 14 1 14 13 0 9 2 15 5 12 4 -3 3 -17 0
-31z m15 -52 c0 -8 -7 -15 -15 -15 -9 0 -12 6 -9 15 4 8 10 15 15 15 5 0 9 -7
9 -15z m87 -297 c-2 -32 -12 -48 -32 -48 -5 0 -3 5 5 10 10 6 11 10 3 10 -13
0 -18 42 -6 53 17 18 32 5 30 -25z m-372 -18 c3 -5 -1 -10 -9 -10 -9 0 -16 5
-16 10 0 6 4 10 9 10 6 0 13 -4 16 -10z m-770 -260 c-3 -5 -10 -10 -16 -10 -5
0 -9 5 -9 10 0 6 7 10 16 10 8 0 12 -4 9 -10z"/>
<path d="M7655 7290 c-14 -6 -2 -9 43 -9 35 -1 62 3 62 9 0 12 -77 12 -105 0z"/>
<path d="M560 7023 c0 -5 6 -10 13 -11 6 0 50 -14 97 -30 47 -16 177 -57 290
-90 382 -112 655 -193 745 -221 68 -21 104 -26 148 -23 32 2 55 8 51 13 -3 6
-14 7 -23 4 -27 -8 -40 15 -44 81 -5 63 -59 184 -82 184 -7 0 -28 -6 -46 -14
-109 -44 -420 -20 -689 52 -19 6 -62 17 -94 26 -44 12 -83 14 -155 10 -87 -6
-138 0 -197 23 -8 3 -14 1 -14 -4z"/>
<path d="M8027 6988 c-7 -4 -8 -8 -2 -9 6 0 22 -2 38 -4 16 -2 27 1 27 8 0 13
-45 16 -63 5z"/>
<path d="M7910 6979 c-111 -9 -374 -35 -523 -50 -138 -15 -152 -33 -29 -37 68
-2 82 0 82 13 0 18 12 19 28 3 16 -16 204 -12 213 4 5 7 15 5 29 -5 17 -12 36
-14 74 -10 28 3 53 9 56 14 3 4 37 10 75 14 39 4 76 12 82 17 7 6 22 8 33 5
11 -3 23 0 27 6 4 7 -9 8 -43 4 -34 -4 -42 -3 -26 3 20 8 32 32 15 28 -5 0
-46 -4 -93 -9z"/>
<path d="M8000 6926 c0 -2 7 -7 16 -10 8 -3 12 -2 9 4 -6 10 -25 14 -25 6z"/>
<path d="M2900 6840 c0 -6 5 -10 11 -10 5 0 7 -4 4 -10 -3 -5 -32 -10 -65 -10
-52 0 -61 -3 -91 -32 -37 -35 -106 -71 -120 -62 -5 3 -9 0 -9 -5 0 -6 -8 -11
-19 -11 -10 0 -30 -9 -45 -21 -19 -15 -26 -17 -26 -7 0 8 5 19 12 26 9 9 9 12
0 12 -7 0 -12 -4 -12 -10 0 -5 -7 -10 -16 -10 -9 0 -51 -17 -93 -37 -63 -31
-85 -48 -131 -105 -47 -58 -59 -67 -81 -64 -33 6 -102 -47 -94 -73 3 -11 -5
-22 -28 -35 -40 -23 -87 -66 -87 -80 -1 -6 -14 -27 -31 -46 -24 -29 -32 -33
-47 -24 -35 23 -120 -79 -143 -172 -7 -26 -20 -49 -35 -59 -13 -8 -24 -20 -24
-26 0 -6 -13 -30 -30 -54 -16 -24 -30 -54 -30 -67 0 -24 -66 -103 -85 -103 -6
0 -20 -7 -32 -16 -30 -21 -21 -55 18 -63 22 -4 27 -9 22 -22 -4 -11 -2 -15 4
-11 5 3 20 -3 33 -15 32 -30 84 -33 131 -8 22 11 46 20 55 20 8 0 20 11 26 25
9 19 14 22 25 14 10 -9 13 -8 13 3 0 7 16 28 35 47 19 18 35 39 35 47 0 8 6
14 14 14 8 0 28 16 45 36 17 19 35 33 39 31 4 -3 18 13 32 34 13 21 28 39 33
39 4 0 5 -4 2 -10 -16 -25 18 -5 68 40 30 28 59 50 65 50 6 0 13 9 17 19 3 11
12 18 19 15 7 -3 26 6 42 19 44 36 165 61 233 47 105 -20 175 -83 191 -172 4
-24 6 -89 5 -145 -2 -57 0 -103 5 -103 12 0 30 59 32 109 1 34 6 45 23 53 20
9 21 13 12 45 -8 26 -8 40 1 54 14 21 -2 59 -25 59 -7 0 -13 5 -13 10 0 6 9
10 20 10 23 0 24 4 10 29 -5 10 -25 22 -45 25 -20 4 -33 11 -30 17 4 5 -8 9
-25 9 -18 0 -29 4 -25 10 3 6 -3 10 -15 10 -14 0 -19 4 -14 13 4 6 -2 4 -14
-6 -16 -15 -28 -17 -54 -12 -28 7 -30 9 -13 15 20 8 64 50 52 50 -4 0 -21 -8
-39 -19 -35 -19 -98 -33 -98 -20 0 3 7 12 15 19 12 10 13 16 4 26 -9 12 -4 14
29 14 50 0 62 15 24 28 -29 10 -71 -3 -70 -22 0 -9 -22 -26 -35 -26 -5 0 -5 9
-2 20 4 11 2 20 -4 20 -6 0 -11 -4 -11 -10 0 -5 -8 -10 -18 -10 -10 0 -22 -4
-27 -8 -6 -5 -23 -6 -40 -2 -29 6 -29 7 20 23 39 12 44 16 23 16 -16 1 -28 6
-28 11 0 10 7 11 105 17 116 6 130 6 165 -2 l35 -7 -30 18 c-21 11 -52 17
-100 17 -69 -1 -69 0 -35 12 l35 13 -35 1 c-19 0 -44 -6 -54 -14 -23 -17 -66
-20 -66 -5 0 6 14 13 30 17 43 8 37 21 -10 19 -33 0 -39 -4 -34 -18 4 -15 -1
-18 -25 -18 -17 0 -31 5 -31 10 0 16 -46 12 -60 -5 -16 -19 -30 -19 -30 0 0 8
12 18 28 21 15 4 41 19 57 35 28 25 85 55 85 44 0 -3 -5 -14 -12 -25 -7 -10
-9 -22 -5 -26 9 -9 77 22 78 36 1 5 3 15 4 20 1 6 3 15 4 20 1 14 28 13 33 -2
3 -8 9 -8 24 0 18 11 18 11 0 12 -15 0 -16 3 -6 15 7 8 19 15 27 15 9 0 13 6
10 15 -4 8 -2 17 3 20 15 9 17 -29 2 -48 -21 -24 -7 -33 22 -13 31 19 47 21
40 3 -4 -10 3 -13 25 -9 16 2 46 -1 66 -8 29 -10 34 -14 24 -26 -13 -15 -44
-20 -34 -5 9 16 -9 20 -28 6 -13 -9 -15 -15 -7 -20 8 -5 4 -15 -11 -31 l-22
-24 36 0 c30 0 35 -3 30 -17 -4 -11 -3 -14 6 -9 8 5 10 18 6 34 l-6 25 60 -6
c46 -4 61 -2 61 8 0 26 24 35 63 23 46 -14 43 -32 -6 -36 -43 -4 -50 -21 -9
-23 22 -1 23 -2 5 -6 -25 -5 -54 -33 -34 -33 7 0 19 -7 27 -15 11 -11 29 -13
73 -9 39 5 61 3 65 -5 7 -11 -27 -16 -89 -12 -29 1 -29 1 -10 -13 57 -42 67
-65 35 -73 -16 -4 -18 -8 -9 -19 6 -8 22 -14 34 -14 26 0 52 -25 35 -35 -5 -3
-14 -4 -19 0 -5 3 -12 1 -15 -4 -6 -9 39 -26 60 -23 6 1 19 -7 30 -19 19 -22
19 -22 -6 -15 l-25 7 25 -23 c14 -13 37 -31 50 -40 l25 -17 -25 6 c-25 6 -25
6 -6 -15 11 -12 15 -22 10 -22 -5 0 -1 -5 9 -11 9 -5 17 -15 17 -22 0 -15 64
-57 87 -57 10 0 25 -5 33 -10 12 -8 11 -10 -6 -10 -12 0 -27 -7 -34 -15 -11
-13 -10 -18 6 -30 18 -14 37 -19 60 -16 7 1 33 -8 59 -19 32 -14 67 -20 109
-19 83 2 86 1 86 -16 0 -17 33 -13 81 10 21 10 31 9 55 -3 27 -14 28 -14 15 2
-20 24 -5 32 21 10 19 -17 21 -17 15 -1 -8 23 -2 22 23 -5 15 -16 17 -24 8
-30 -10 -5 -4 -16 20 -40 25 -25 35 -30 41 -20 6 10 10 9 14 -7 3 -12 13 -21
22 -21 9 0 15 -6 12 -12 -2 -7 0 -21 5 -30 5 -10 6 -18 2 -18 -4 0 -13 8 -20
18 -12 16 -13 16 -14 0 0 -33 56 -42 73 -12 4 8 13 14 19 14 12 0 -15 -45 -28
-46 -38 -4 -63 -44 -28 -44 13 0 15 -7 11 -29 -3 -16 -2 -53 4 -83 13 -73 11
-149 -7 -175 -8 -12 -14 -31 -14 -43 0 -11 -4 -20 -10 -20 -5 0 -10 -7 -10
-15 0 -8 -3 -15 -7 -15 -11 0 -49 -89 -45 -106 2 -8 -5 -14 -18 -14 -23 0 -27
-18 -5 -26 11 -5 12 -10 4 -26 -8 -15 -8 -19 0 -14 15 10 14 5 -10 -59 -11
-31 -30 -65 -42 -76 -15 -14 -17 -18 -6 -14 12 4 25 -5 44 -29 30 -39 45 -39
45 1 0 13 8 37 18 51 22 33 49 122 66 217 25 139 68 241 129 305 64 67 109
124 131 168 20 38 9 42 -24 7 -38 -40 -42 -29 -10 24 47 75 66 232 36 289 -15
29 -60 73 -90 89 -19 10 -18 11 2 17 22 7 31 26 12 26 -5 0 -9 3 -9 8 3 20 -3
31 -21 37 -11 3 -20 13 -20 21 0 8 -4 14 -10 14 -5 0 -10 6 -10 13 0 18 -42
57 -62 57 -8 0 -25 9 -38 20 -13 11 -29 20 -36 20 -7 0 -16 5 -20 12 -4 7 -3
8 4 4 25 -15 10 13 -30 60 -24 26 -37 44 -29 39 10 -5 12 -4 7 4 -4 6 -39 32
-77 58 -39 25 -68 47 -65 50 2 3 14 -1 26 -7 12 -6 24 -9 26 -7 7 7 -105 97
-120 97 -7 0 -23 10 -36 22 -13 12 -31 23 -39 23 -9 1 -26 2 -38 3 -13 1 -23
7 -23 12 0 13 33 13 47 -1 8 -8 13 -8 17 0 11 18 -1 28 -49 42 -25 7 -45 17
-45 21 0 4 -7 5 -15 2 -8 -4 -15 -1 -15 6 0 8 -9 10 -27 5 -22 -5 -25 -4 -16
5 6 7 30 11 57 9 25 -3 46 -2 46 2 0 7 -101 49 -117 49 -7 0 -15 5 -18 11 -5
7 5 8 29 4 32 -6 35 -5 29 11 -5 13 -3 16 10 11 9 -3 17 -3 17 2 0 11 -74 41
-100 41 -26 0 -34 16 -12 25 13 5 9 9 -21 20 -20 7 -58 16 -82 20 -25 3 -43
10 -40 14 5 9 -66 21 -121 21 -18 0 -34 5 -36 10 -4 14 -108 52 -108 40z m56
-63 c4 -4 1 -7 -7 -8 -62 -4 -107 -9 -126 -14 -13 -3 -23 -1 -23 5 0 5 12 12
28 16 15 3 32 7 37 8 18 5 84 0 91 -7z m-86 -31 c0 -3 -4 -8 -10 -11 -5 -3
-10 -1 -10 4 0 6 5 11 10 11 6 0 10 -2 10 -4z m400 -36 c0 -5 -2 -10 -4 -10
-3 0 -8 5 -11 10 -3 6 -1 10 4 10 6 0 11 -4 11 -10z m-591 -54 c-2 -2 -28 -15
-58 -30 -47 -22 -51 -23 -36 -6 10 11 32 24 49 29 35 10 51 13 45 7z m-229
-137 c-35 -28 -60 -41 -60 -32 0 16 16 32 40 42 40 16 47 12 20 -10z m120 -4
c-7 -8 -19 -15 -27 -15 -7 0 -25 -7 -38 -16 -23 -15 -25 -15 -25 0 0 12 53 37
99 45 2 1 -2 -6 -9 -14z m-290 -52 c-1 -19 -18 -33 -33 -27 -10 3 -17 1 -17
-6 0 -6 5 -8 10 -5 6 3 10 2 10 -3 0 -18 -57 -60 -90 -66 -21 -4 -51 -22 -76
-47 -26 -25 -47 -38 -54 -34 -20 12 77 97 104 90 11 -2 15 -2 9 1 -7 3 -13 10
-13 15 0 5 6 9 13 9 6 0 32 18 57 40 41 35 80 52 80 33z m201 -17 c-7 -8 -20
-14 -29 -14 -9 0 -25 -3 -36 -7 -14 -6 -17 -5 -14 6 3 8 12 13 21 11 8 -1 18
2 22 8 3 5 15 10 27 10 17 0 18 -3 9 -14z m254 -6 c3 -5 -1 -10 -9 -10 -9 0
-16 5 -16 10 0 6 4 10 9 10 6 0 13 -4 16 -10z m40 0 c-3 -5 -11 -10 -16 -10
-6 0 -7 5 -4 10 3 6 11 10 16 10 6 0 7 -4 4 -10z m-605 -10 c0 -5 -5 -10 -11
-10 -5 0 -7 5 -4 10 3 6 8 10 11 10 2 0 4 -4 4 -10z m200 -5 c0 -8 -6 -15 -13
-15 -7 0 -24 -8 -37 -17 -14 -10 -31 -18 -37 -19 -7 -1 -27 -14 -44 -28 -17
-14 -41 -29 -55 -32 -29 -8 -22 -24 12 -24 28 0 31 -16 7 -42 -15 -17 -15 -18
1 -18 9 0 33 7 53 15 55 23 71 20 45 -8 -26 -27 -28 -39 -7 -31 8 4 15 2 15
-3 0 -13 -46 -54 -102 -91 -64 -42 -62 -17 2 32 59 45 72 61 42 54 -12 -3 -22
-2 -24 3 -4 12 -81 -16 -87 -32 -5 -15 -42 -48 -53 -49 -14 0 -9 31 7 46 8 9
15 19 15 24 0 5 -7 7 -15 4 -8 -4 -15 -13 -15 -21 0 -7 -11 -25 -25 -39 -14
-14 -25 -29 -25 -34 0 -6 -4 -10 -10 -10 -12 0 -13 17 -1 24 4 3 11 19 14 34
3 16 14 32 24 36 41 15 62 31 73 54 14 31 8 37 -20 22 -14 -7 -26 -8 -32 -2
-11 11 40 50 102 77 25 11 60 33 78 50 19 16 50 35 70 41 21 7 38 12 40 13 1
1 2 -6 2 -14z m634 -91 c9 -3 14 -10 11 -14 -6 -10 -55 0 -55 11 0 10 21 12
44 3z m77 -74 c5 0 9 -5 9 -11 0 -15 -43 -7 -48 10 -3 10 0 12 12 8 10 -4 22
-7 27 -7z m-691 -90 c0 -5 -6 -10 -13 -10 -17 0 -49 -34 -41 -43 4 -4 -7 -14
-25 -24 -17 -10 -31 -23 -31 -29 0 -7 -11 -14 -25 -17 -33 -6 -31 23 3 38 13
6 26 22 29 36 5 24 22 39 63 52 25 9 40 7 40 -3z m90 -9 c0 -9 -52 -22 -60
-15 -7 7 23 24 43 24 9 0 17 -4 17 -9z m655 -28 c19 -15 19 -15 -10 -8 -37 8
-57 25 -29 25 10 0 28 -8 39 -17z m-1035 -39 c0 -4 -10 -15 -22 -25 -36 -32
-53 -22 -21 13 15 17 43 25 43 12z m1607 -10 c-3 -3 -12 -4 -19 -1 -8 3 -5 6
6 6 11 1 17 -2 13 -5z m110 -22 c-23 -5 -47 4 -47 17 0 6 13 5 33 -2 23 -8 27
-12 14 -15z m-1871 -37 c-9 -13 -16 -31 -16 -39 0 -8 -4 -17 -9 -21 -11 -6 -8
17 8 58 6 15 16 27 22 27 7 0 5 -9 -5 -25z m1894 5 c13 -8 13 -10 -2 -10 -9 0
-20 5 -23 10 -8 13 5 13 25 0z m-2028 -32 c-7 -7 -12 -18 -12 -26 0 -17 -52
-101 -62 -102 -10 0 19 66 49 111 14 22 28 37 31 34 3 -3 0 -11 -6 -17z m182
-22 c-9 -15 -19 -25 -21 -22 -3 2 3 16 13 30 9 15 19 25 21 22 3 -2 -3 -16
-13 -30z m1176 18 c0 -2 -7 -4 -15 -4 -8 0 -15 4 -15 10 0 5 7 7 15 4 8 -4 15
-8 15 -10z m434 -50 c39 -46 42 -63 9 -46 -20 11 -69 92 -56 92 5 0 26 -21 47
-46z m407 4 c22 -12 39 -25 39 -30 0 -11 -33 2 -46 18 -6 8 -29 18 -50 23 -34
8 -36 9 -10 10 15 1 46 -9 67 -21z m-648 -25 c18 -9 27 -18 20 -20 -12 -4 -73
23 -73 32 0 10 21 5 53 -12z m-153 -3 c0 -5 -2 -10 -4 -10 -3 0 -8 5 -11 10
-3 6 -1 10 4 10 6 0 11 -4 11 -10z m550 0 c0 -5 -7 -7 -15 -4 -8 4 -15 8 -15
10 0 2 7 4 15 4 8 0 15 -4 15 -10z m-1979 -53 l-23 -22 17 28 c10 15 20 25 23
22 3 -3 -5 -16 -17 -28z m1439 2 c0 -4 -13 -2 -29 4 -17 6 -28 14 -25 19 5 8
54 -12 54 -23z m790 11 c0 -5 -7 -10 -15 -10 -8 0 -15 5 -15 10 0 6 7 10 15
10 8 0 15 -4 15 -10z m-300 -70 c0 -5 -2 -10 -4 -10 -3 0 -8 5 -11 10 -3 6 -1
10 4 10 6 0 11 -4 11 -10z m270 -40 c0 -15 -5 -12 -26 11 -19 22 -19 22 4 10
12 -6 22 -16 22 -21z m-606 -5 l31 -15 -35 6 c-19 4 -46 13 -60 21 l-25 14 29
-6 c16 -3 43 -13 60 -20z m369 15 c7 -6 23 -19 37 -30 l25 -20 -31 15 c-18 9
-37 22 -44 30 -14 17 -5 20 13 5z m-118 -10 c3 -5 1 -10 -4 -10 -6 0 -11 5
-11 10 0 6 2 10 4 10 3 0 8 -4 11 -10z m-85 -26 c0 -8 -4 -12 -10 -9 -5 3 -10
10 -10 16 0 5 5 9 10 9 6 0 10 -7 10 -16z m471 -11 c13 -16 12 -17 -3 -4 -10
7 -18 15 -18 17 0 8 8 3 21 -13z m-417 -25 c-3 -5 -12 -4 -20 3 -7 6 -11 15
-8 21 3 5 12 4 20 -3 7 -6 11 -15 8 -21z m366 -64 c0 -8 -4 -12 -10 -9 -5 3
-10 13 -10 21 0 8 5 12 10 9 6 -3 10 -13 10 -21z m1 -57 c-8 -8 -11 -7 -11 4
0 20 13 34 18 19 3 -7 -1 -17 -7 -23z m29 -31 c0 -2 -7 -17 -15 -32 -15 -29
-22 -13 -9 20 5 14 24 23 24 12z"/>
<path d="M3068 6823 c6 -2 18 -2 25 0 6 3 1 5 -13 5 -14 0 -19 -2 -12 -5z"/>
<path d="M2242 6530 c-18 -17 -32 -33 -32 -35 0 -10 35 12 54 34 30 34 12 34
-22 1z"/>
<path d="M299 6440 c-16 -11 -36 -72 -33 -101 2 -13 7 -64 13 -114 8 -73 25
-542 26 -722 l0 -43 39 0 c22 0 53 4 70 10 152 49 202 60 274 60 42 0 93 -5
112 -11 19 -6 49 -14 66 -18 l31 -8 7 86 c3 47 11 104 17 126 7 25 9 72 5 125
-4 49 -2 100 4 120 6 19 11 97 11 173 2 163 0 167 -96 190 -167 41 -304 79
-335 92 -68 29 -188 48 -211 35z m465 -498 c-1 -54 -7 -88 -19 -112 l-19 -35
-13 45 c-8 25 -17 75 -20 113 -5 57 -3 70 12 87 l19 21 20 -21 c18 -18 21 -32
20 -98z"/>
<path d="M2557 6393 c-13 -13 -7 -21 13 -16 11 3 17 9 14 14 -6 11 -18 12 -27
2z"/>
<path d="M2498 6363 c7 -3 16 -2 19 1 4 3 -2 6 -13 5 -11 0 -14 -3 -6 -6z"/>
<path d="M1990 6335 c-7 -9 -11 -18 -8 -20 3 -3 11 1 18 10 7 9 11 18 8 20 -3
3 -11 -1 -18 -10z"/>
<path d="M1910 6275 c-20 -24 -6 -28 15 -5 10 11 13 20 8 20 -6 0 -16 -7 -23
-15z"/>
<path d="M3850 6267 c0 -7 18 -30 39 -51 31 -30 43 -36 56 -28 16 8 14 11 -14
28 -17 10 -31 21 -31 25 0 4 -11 14 -25 23 -19 13 -25 13 -25 3z"/>
<path d="M2662 6194 c-10 -12 -10 -14 2 -14 17 0 30 16 19 23 -5 3 -14 -1 -21
-9z"/>
<path d="M2740 6150 c0 -5 15 -10 33 -10 24 0 28 3 17 10 -20 13 -50 13 -50 0z"/>
<path d="M1740 6114 c-19 -18 -32 -35 -29 -38 3 -3 23 12 44 34 47 48 34 52
-15 4z"/>
<path d="M3975 6116 c16 -22 65 -76 109 -121 82 -83 126 -111 126 -81 0 9 -6
16 -13 16 -24 0 -77 64 -77 93 0 21 -5 27 -21 27 -23 0 -65 26 -118 74 l-35
31 29 -39z"/>
<path d="M1734 6052 c-32 -38 -79 -122 -69 -122 4 0 -2 -12 -13 -27 -29 -42
-62 -110 -62 -129 0 -22 46 47 67 100 9 22 27 54 40 69 13 16 23 32 23 37 0 5
11 21 24 37 25 30 43 74 29 72 -4 0 -22 -17 -39 -37z"/>
<path d="M7613 5975 c4 -134 25 -198 87 -268 46 -52 58 -46 16 9 -30 39 -48
77 -73 154 -3 8 -4 53 -4 100 2 65 -2 90 -14 105 -15 19 -16 11 -12 -100z"/>
<path d="M6363 6068 c-12 -6 -24 -16 -26 -22 -6 -18 11 -462 23 -586 5 -63 13
-328 16 -588 6 -426 5 -475 -10 -497 -9 -14 -13 -25 -8 -25 14 0 95 55 133 91
l37 34 -9 110 c-4 61 -13 196 -19 300 -6 105 -15 246 -20 315 -5 69 -6 290 -4
492 3 201 1 368 -3 371 -20 12 -90 15 -110 5z"/>
<path d="M8883 6064 c-7 -20 21 -49 38 -39 9 6 8 11 -5 21 -10 7 -15 17 -11
23 3 6 1 11 -5 11 -6 0 -13 -7 -17 -16z"/>
<path d="M1623 6063 c-13 -2 -23 -9 -23 -14 0 -15 53 -7 58 9 2 6 0 11 -5 11
-4 -1 -18 -4 -30 -6z"/>
<path d="M6717 5888 c2 -101 -2 -192 -7 -203 -5 -11 -11 -35 -12 -54 -4 -41
-28 -56 -28 -17 0 14 -12 75 -26 135 -23 96 -28 108 -45 104 -24 -7 -24 -36
-4 -338 19 -282 30 -901 18 -977 -9 -51 -8 -58 6 -58 9 0 25 7 36 16 14 10 31
13 58 9 46 -8 75 9 55 33 -10 12 -13 107 -11 426 2 387 9 517 35 696 6 41 14
143 18 225 6 140 5 151 -13 168 -11 9 -33 17 -51 17 l-31 0 2 -182z"/>
<path d="M2405 6004 c-62 -32 -72 -40 -107 -88 -39 -54 -36 -77 5 -36 17 17
65 47 105 66 40 20 72 41 72 49 0 8 5 15 10 15 6 0 10 5 10 10 0 18 -44 10
-95 -16z"/>
<path d="M8950 6013 c0 -15 19 -37 26 -31 3 4 -1 14 -10 23 -9 9 -16 13 -16 8z"/>
<path d="M2975 6000 c3 -5 11 -10 16 -10 6 0 7 5 4 10 -3 6 -11 10 -16 10 -6
0 -7 -4 -4 -10z"/>
<path d="M9045 5969 c-10 -15 3 -25 16 -12 7 7 7 13 1 17 -6 3 -14 1 -17 -5z"/>
<path d="M9053 5933 c-7 -2 -13 -12 -12 -21 0 -11 2 -12 6 -4 2 6 11 12 19 12
8 0 14 5 14 10 0 11 -7 12 -27 3z"/>
<path d="M2570 5855 c-11 -20 -11 -28 -1 -38 10 -9 15 -8 27 8 8 11 13 26 12
34 -5 25 -24 23 -38 -4z"/>
<path d="M4218 5780 c-5 -139 7 -173 16 -45 5 58 4 110 -2 125 -7 19 -11 1
-14 -80z"/>
<path d="M2379 5845 c-39 -21 -60 -60 -69 -128 -8 -54 -6 -68 15 -117 13 -30
26 -82 29 -115 6 -59 22 -85 53 -85 7 0 28 24 47 54 19 30 39 57 45 60 6 4 11
16 11 26 0 16 -5 19 -32 14 -31 -5 -32 -5 -14 10 11 9 23 16 28 16 4 0 8 5 8
10 0 6 -11 10 -24 10 -24 0 -76 34 -76 51 0 5 19 9 43 9 56 0 76 12 55 34 -13
12 -14 24 -7 53 5 21 9 41 9 45 0 6 -84 69 -92 68 -2 -1 -15 -7 -29 -15z"/>
<path d="M2818 5803 c6 -2 18 -2 25 0 6 3 1 5 -13 5 -14 0 -19 -2 -12 -5z"/>
<path d="M1541 5754 c0 -11 3 -14 6 -6 3 7 2 16 -1 19 -3 4 -6 -2 -5 -13z"/>
<path d="M3365 5701 c-3 -6 11 -15 32 -20 48 -14 63 -14 63 -1 0 6 -13 10 -29
10 -17 0 -33 5 -36 10 -8 13 -22 13 -30 1z"/>
<path d="M8620 5660 c0 -5 5 -10 10 -10 6 0 10 5 10 10 0 6 -4 10 -10 10 -5 0
-10 -4 -10 -10z"/>
<path d="M3760 5625 c7 -8 17 -15 22 -15 6 0 5 7 -2 15 -7 8 -17 15 -22 15 -6
0 -5 -7 2 -15z"/>
<path d="M4206 5614 c-4 -9 -4 -19 -1 -22 2 -3 7 3 11 12 4 9 4 19 1 22 -2 3
-7 -3 -11 -12z"/>
<path d="M7377 5623 c-16 -4 -17 -11 -11 -51 9 -50 7 -508 -2 -554 l-5 -28 43
19 c24 11 66 22 93 26 28 3 63 9 79 12 l28 5 -2 202 c-1 110 1 226 6 256 4 30
8 69 8 85 l1 30 -110 1 c-60 1 -118 0 -128 -3z"/>
<path d="M9530 5590 c-12 -7 -12 -12 -2 -22 9 -9 17 -10 30 -2 9 6 16 15 15
20 -3 13 -26 15 -43 4z"/>
<path d="M9645 5556 c9 -13 14 -34 11 -47 -3 -13 -8 -49 -10 -80 -7 -76 -18
-101 -63 -138 -27 -22 -48 -31 -74 -31 -24 0 -39 -5 -43 -16 -9 -24 -8 -26 12
-16 9 5 34 12 55 16 52 10 115 68 144 135 13 29 26 51 30 48 3 -4 -4 -27 -16
-52 -24 -51 -28 -73 -6 -35 35 62 67 160 60 190 -4 16 -10 32 -15 35 -4 3 -4
-13 1 -36 6 -25 6 -46 -1 -57 -7 -13 -9 -9 -10 20 0 28 -7 42 -31 62 -41 35
-66 36 -44 2z"/>
<path d="M9427 5542 c-10 -10 -17 -24 -17 -30 0 -7 -13 -12 -30 -12 -25 0 -30
-4 -36 -34 -7 -40 2 -62 19 -47 7 5 25 11 41 13 31 3 50 28 22 28 -9 0 -16 5
-16 10 0 6 9 10 20 10 12 0 20 7 20 16 0 9 9 18 21 21 12 4 18 11 15 20 -3 8
-6 17 -6 19 0 12 -39 2 -53 -14z"/>
<path d="M9530 5492 c0 -4 7 -18 16 -30 11 -15 15 -38 12 -68 -3 -47 5 -56 22
-25 20 37 7 103 -24 123 -14 10 -26 10 -26 0z"/>
<path d="M682 5479 c-4 -4 -23 -12 -43 -18 -45 -14 -87 -57 -72 -72 14 -14
333 -14 397 1 87 19 83 24 -49 64 -119 35 -211 45 -233 25z"/>
<path d="M4450 5471 c-14 -4 -23 -14 -21 -22 1 -8 7 -84 12 -169 11 -188 17
-240 30 -240 11 0 11 -315 0 -396 -5 -36 -4 -54 3 -55 6 -1 34 -2 61 -4 28 -1
60 -5 71 -9 21 -7 21 -6 11 51 -25 146 -7 746 24 805 6 11 7 24 2 28 -12 12
-163 21 -193 11z m99 -224 c19 -24 32 -213 27 -386 -3 -91 -5 -183 -5 -203 -1
-41 -23 -53 -36 -20 -28 73 -44 573 -19 613 8 13 20 11 33 -4z"/>
<path d="M9040 5469 c0 -5 5 -7 10 -4 6 3 10 8 10 11 0 2 -4 4 -10 4 -5 0 -10
-5 -10 -11z"/>
<path d="M500 5402 c0 -7 -9 -12 -20 -12 -11 0 -20 -4 -20 -10 0 -8 14 -14 23
-8 1 1 12 -4 25 -11 17 -9 22 -9 22 1 -1 17 -30 56 -30 40z"/>
<path d="M8335 5400 c-3 -5 3 -10 14 -10 11 0 23 5 26 10 3 6 -3 10 -14 10
-11 0 -23 -4 -26 -10z"/>
<path d="M409 5383 c-1 -4 -1 -11 0 -15 0 -5 -3 -8 -8 -8 -6 0 -11 -15 -13
-32 l-4 -33 -10 35 c-8 29 -16 37 -49 45 -29 7 -40 6 -43 -3 -2 -7 -12 -12
-22 -12 -10 0 -20 -5 -22 -12 -4 -10 -13 -10 -41 -1 -20 6 -37 9 -37 7 0 -3
11 -17 25 -32 26 -28 31 -42 16 -42 -5 0 -13 9 -16 20 -4 13 -15 20 -30 20
-13 0 -27 5 -30 10 -9 15 -25 12 -25 -5 0 -8 9 -15 20 -15 11 0 20 -2 20 -4 0
-2 3 -12 6 -21 5 -12 -16 -4 -70 25 l-76 41 0 -65 c0 -42 4 -66 13 -69 10 -4
10 -6 0 -6 -10 -1 -13 -415 -13 -2035 l0 -2033 25 -1 c14 0 34 -7 44 -16 10
-9 21 -13 24 -9 12 11 8 41 -6 46 -6 3 7 6 31 7 23 2 45 3 50 4 30 9 147 16
322 21 235 7 264 9 415 31 143 20 233 40 292 63 27 10 68 21 93 25 84 12 107
24 114 57 4 21 11 29 23 27 13 -2 19 5 21 27 2 17 9 36 14 43 6 7 8 15 4 19
-3 3 1 17 10 30 8 14 17 33 19 44 2 10 8 27 14 36 8 14 11 15 11 3 1 -17 39
48 40 68 0 17 35 63 42 57 3 -3 11 14 18 37 30 101 44 137 52 132 5 -3 4 -12
-2 -19 -6 -8 -7 -16 -2 -19 11 -6 35 54 52 132 8 35 17 52 28 52 8 0 12 3 9 6
-3 4 0 16 8 28 8 11 15 26 15 34 0 7 9 32 20 54 11 23 20 50 20 60 0 10 4 18
10 18 5 0 19 33 31 74 13 46 26 73 33 70 7 -3 17 15 25 46 9 34 17 50 26 46
21 -8 26 6 7 21 -16 13 -16 14 0 9 16 -5 29 25 51 119 4 17 5 16 6 -5 3 -42
19 -2 36 87 8 44 24 98 35 121 11 22 32 104 47 181 18 93 31 141 40 141 8 0
11 -10 8 -27 -14 -89 -59 -310 -76 -381 -12 -46 -19 -86 -16 -88 2 -2 21 39
41 93 21 54 53 130 71 168 19 39 41 91 51 118 9 26 21 47 26 47 12 0 2 -49
-24 -114 -10 -27 -17 -50 -15 -52 2 -2 25 23 50 56 50 64 52 65 127 40 14 -5
47 -11 74 -14 27 -3 84 -20 125 -37 62 -25 92 -46 161 -110 47 -44 129 -114
183 -155 53 -42 112 -89 130 -105 17 -17 41 -35 52 -41 17 -9 16 -6 -4 16 -14
14 -21 26 -17 26 15 0 66 -31 66 -40 0 -6 9 -10 20 -10 25 0 156 -127 152
-147 -2 -7 4 -13 13 -13 8 0 15 -6 15 -12 0 -12 19 -26 93 -72 16 -10 47 -19
69 -20 21 -2 44 -8 51 -15 6 -6 21 -11 34 -11 17 0 21 4 16 16 -5 14 -2 16 21
10 25 -6 27 -5 20 16 -16 53 -16 54 -1 35 8 -10 21 -15 31 -11 9 3 16 1 16 -5
0 -6 -5 -11 -12 -11 -12 0 -2 -15 10 -15 15 0 32 -17 32 -31 0 -17 -60 -20
-77 -3 -7 7 -13 7 -17 1 -10 -17 17 -30 69 -33 39 -2 49 1 46 12 -5 21 -5 30
2 69 7 36 7 36 -39 48 -38 10 -44 15 -39 32 4 12 2 20 -5 20 -6 0 -9 -4 -5 -9
11 -19 -13 -20 -29 -2 -21 23 -11 54 14 46 20 -6 35 9 25 25 -5 8 -12 7 -22
-2 -12 -10 -17 -9 -28 5 -18 25 -28 21 -23 -8 6 -27 -1 -32 -20 -13 -17 17
-15 45 4 52 11 4 15 14 12 31 -6 31 -5 31 27 -1 33 -33 44 -24 16 12 -30 38
-27 48 13 41 36 -6 61 17 28 26 -16 4 -15 5 1 6 21 1 21 10 2 35 -20 26 -19
37 1 29 15 -5 15 -3 -1 20 -9 15 -22 27 -27 27 -5 0 -3 7 6 15 8 8 19 15 25
15 16 0 14 8 -9 40 -17 24 -18 29 -5 40 21 17 19 36 -7 60 l-22 20 25 0 c37 0
69 -11 63 -22 -7 -11 15 -40 25 -33 4 2 16 -14 26 -37 20 -47 16 -134 -8 -172
-11 -16 -12 -27 -5 -41 8 -13 7 -24 -1 -37 -7 -11 -9 -28 -6 -39 4 -12 -2 -33
-15 -54 -12 -19 -17 -35 -11 -35 6 0 11 -9 11 -20 0 -11 6 -20 14 -20 7 0 19
-7 26 -15 7 -8 17 -12 22 -9 5 3 12 -3 15 -15 3 -12 9 -21 14 -21 5 0 9 -7 9
-15 0 -8 10 -19 21 -26 20 -10 21 -9 16 13 -4 14 -4 28 0 32 15 15 11 39 -8
43 -23 6 -24 11 -4 33 13 14 13 22 4 46 -19 47 -18 65 8 77 22 10 33 50 16 60
-5 2 -2 2 5 1 13 -4 14 5 14 101 0 57 24 196 28 165 1 -8 1 -19 0 -25 -12 -57
13 -355 30 -355 10 0 21 -60 23 -122 2 -38 8 -53 34 -80 31 -32 45 -78 23 -78
-5 0 -10 5 -10 10 0 6 -7 10 -15 10 -8 0 -12 -6 -9 -14 3 -7 -2 -16 -10 -19
-23 -9 -20 -27 4 -27 11 0 35 -6 53 -14 26 -10 36 -23 46 -55 6 -23 16 -39 20
-36 5 3 11 -2 15 -10 4 -10 -1 -15 -16 -15 -20 0 -20 -1 6 -25 19 -18 25 -31
22 -50 -4 -20 0 -25 17 -27 12 0 28 -2 36 -2 8 -1 18 -12 23 -25 7 -19 6 -22
-5 -13 -7 6 -37 16 -66 23 -43 9 -51 14 -46 29 4 13 -1 19 -19 22 -14 3 -23 1
-20 -3 3 -5 13 -9 22 -9 13 0 14 -2 3 -9 -10 -7 -8 -12 10 -25 13 -9 28 -16
34 -16 5 0 33 -10 61 -21 45 -19 51 -25 52 -52 0 -16 6 -33 12 -37 20 -12 373
8 431 26 9 2 21 17 28 32 10 22 10 25 0 14 -18 -17 -49 -15 -49 4 0 11 6 15
20 11 24 -6 25 1 3 25 -15 16 -15 22 -4 40 11 18 11 20 -3 15 -9 -4 -16 -2
-16 4 0 6 -9 8 -21 4 -18 -6 -20 -4 -14 14 7 23 -4 28 -23 9 -8 -8 -12 -8 -12
-1 0 17 26 34 43 27 13 -5 16 0 12 25 -2 17 -6 35 -9 40 -4 5 -3 12 2 15 5 3
5 29 2 58 -4 29 -6 56 -4 59 7 12 -26 31 -45 26 -12 -3 -18 1 -17 11 0 8 -5
17 -12 19 -7 3 -11 -3 -10 -14 2 -10 -1 -19 -7 -20 -5 -2 -10 13 -10 32 0 36
-20 49 -28 18 -4 -17 -5 -17 -6 0 0 9 -6 17 -12 17 -5 0 -8 -4 -4 -9 3 -5 1
-13 -5 -16 -8 -5 -8 -11 0 -20 8 -9 6 -14 -9 -18 -16 -4 -19 0 -18 22 1 16 -3
25 -11 23 -7 -1 -15 4 -18 12 -3 8 -11 13 -17 11 -7 -2 -31 -6 -54 -9 -35 -5
-43 -3 -43 10 0 10 -6 14 -14 11 -17 -7 -61 37 -52 51 7 11 72 -3 93 -20 24
-20 149 -33 243 -25 16 1 25 -3 26 -13 1 -8 2 -21 3 -27 0 -7 8 -13 17 -13 13
0 15 7 12 31 -4 28 -1 33 29 45 18 8 33 19 33 25 0 7 -7 8 -17 4 -61 -25 -87
-27 -101 -8 -13 16 -14 16 -9 1 7 -20 3 -21 -88 -19 -70 1 -153 19 -176 38 -9
7 -37 20 -63 29 -30 10 -45 21 -42 29 3 8 -2 11 -14 8 -23 -6 -76 22 -90 47
-6 11 -16 20 -23 19 -9 0 -9 -2 1 -6 6 -2 12 -10 12 -16 1 -22 48 -66 94 -88
25 -11 46 -23 46 -25 0 -2 -15 -3 -32 -2 -28 3 -33 0 -33 -19 0 -12 -4 -25 -7
-28 -8 -8 22 -75 34 -75 4 0 5 -6 2 -14 -3 -8 -1 -17 5 -21 14 -8 14 -25 1
-25 -6 0 -15 11 -20 24 -5 13 -14 27 -19 31 -6 3 -11 19 -11 35 0 16 -5 32
-12 36 -8 5 -9 0 -6 -14 24 -90 -108 105 -147 217 -9 25 -15 80 -15 130 -1 47
-5 118 -10 156 -8 61 -6 83 16 167 28 111 30 146 9 154 -11 5 -12 10 -3 24 29
46 -28 66 -162 56 -84 -7 -107 -10 -165 -25 -50 -13 -55 -13 -55 -1 0 6 13 10
29 10 17 0 33 5 36 11 4 6 13 8 20 5 13 -5 35 12 35 26 0 10 -32 7 -40 -3 -3
-4 -15 -9 -28 -13 -18 -6 -29 0 -54 28 -17 20 -38 36 -46 36 -12 0 -12 -3 -2
-15 8 -10 10 -19 4 -25 -14 -14 -79 21 -78 42 1 12 -5 17 -20 15 -15 -1 -22 4
-24 22 -3 20 -1 23 19 18 13 -3 29 -1 36 4 9 8 20 5 40 -8 33 -23 63 -35 62
-25 -3 20 3 32 16 32 8 0 15 -7 15 -15 0 -8 6 -12 14 -9 18 7 11 29 -21 60
-26 26 -48 31 -59 13 -4 -8 -13 -4 -25 12 -14 18 -21 21 -27 11 -7 -10 -11
-10 -22 3 -7 9 -21 13 -31 10 -9 -3 -20 -1 -24 5 -4 6 -19 9 -33 6 -32 -7 -92
12 -116 37 -16 15 -16 18 -2 23 9 3 22 2 29 -3 6 -6 26 -13 43 -16 26 -5 33
-2 37 13 3 11 1 23 -4 26 -16 9 -10 62 11 99 24 42 26 65 5 65 -20 0 -19 8 5
48 15 25 18 38 10 52 -11 21 -140 114 -148 106 -2 -3 9 -27 26 -53 35 -54 29
-76 -14 -48 -23 15 -26 15 -21 2 4 -11 2 -14 -9 -10 -9 3 -13 12 -9 21 3 8 -3
30 -14 48 -11 18 -16 36 -11 39 14 9 -1 46 -18 43 -10 -2 -18 5 -20 17 -2 16
-1 17 7 5 5 -8 11 -12 13 -10 41 64 60 109 54 127 -3 8 -11 13 -18 11 -6 -2
-22 6 -36 19 -17 15 -37 23 -62 23 -31 0 -42 -6 -69 -40 -28 -35 -37 -40 -72
-40 -32 0 -42 4 -46 19 -3 11 -18 24 -35 30 -16 6 -51 25 -79 42 -36 24 -46
35 -38 45 6 8 6 14 0 18 -5 4 -12 2 -15 -3 -8 -12 -49 -1 -59 16 -12 19 -40
16 -70 -7 -23 -18 -27 -19 -35 -4 -8 14 -12 13 -34 -8 -14 -12 -28 -33 -32
-45 -8 -24 0 -28 52 -23 13 1 32 -6 42 -15 9 -9 24 -15 31 -13 9 2 13 -5 11
-19 -3 -23 12 -31 23 -13 8 14 48 13 63 -2 7 -7 8 -17 1 -30 -7 -12 -6 -18 1
-18 6 0 8 -5 5 -10 -8 -13 -55 -2 -77 18 -11 9 -27 12 -45 8 -15 -4 -33 -7
-40 -8 -19 -2 -76 -65 -78 -85 0 -10 -4 -24 -9 -31 -4 -7 -4 -22 0 -34 6 -21
6 -21 20 3 10 17 13 19 14 7 0 -9 6 -18 13 -21 24 -8 -53 -37 -98 -37 -45 0
-129 34 -168 68 -11 9 -32 15 -52 14 -31 -2 -36 1 -52 34 -19 39 -20 40 -98
77 -27 13 -63 31 -80 40 -64 35 -98 47 -120 41 -31 -8 -43 15 -19 33 23 18
105 11 140 -12 32 -21 40 -2 14 35 -13 19 -36 34 -61 40 -22 6 -63 27 -90 47
-44 31 -52 34 -79 25 -24 -9 -31 -8 -39 6 -7 13 -12 14 -24 3 -9 -7 -24 -11
-34 -9 -10 1 -24 -1 -32 -6 -8 -5 -16 -4 -21 4 -4 7 -12 10 -18 6 -6 -3 -22
-2 -36 4 -22 8 -25 14 -20 35 5 20 1 27 -17 34 -16 7 -18 10 -8 10 16 1 29 20
29 42 0 5 -9 9 -20 9 -11 0 -20 -7 -20 -15 0 -8 -7 -15 -15 -15 -23 0 -18 -24
11 -53 15 -16 24 -33 20 -42 -8 -22 -26 -18 -26 5 0 11 -7 20 -15 20 -8 0 -15
5 -15 10 0 6 -11 8 -26 4 -18 -5 -25 -3 -24 7 4 28 0 36 -26 48 -36 16 -41 8
-10 -17 23 -17 24 -21 9 -26 -15 -6 -15 -8 -3 -17 13 -8 11 -13 -9 -29 -25
-21 -51 -26 -51 -10 0 6 -7 10 -15 10 -8 0 -15 -5 -15 -11 0 -5 -8 -9 -17 -8
-10 1 -25 1 -33 0 -13 -1 -13 -2 0 -11 8 -5 11 -10 6 -10 -19 0 -75 45 -92 74
-16 28 -21 82 -8 95 3 3 16 -8 29 -24 l24 -30 1 31 c0 19 -6 34 -15 38 -23 9
-18 25 13 38 l27 11 -30 6 c-16 4 -49 6 -72 6 -24 -1 -43 2 -43 7 0 4 -7 8
-15 8 -8 0 -15 -4 -15 -10 0 -5 -9 -10 -20 -10 -11 0 -20 4 -20 10 0 5 -7 7
-15 4 -9 -4 -15 -1 -15 8 0 7 -10 18 -22 23 -13 6 -24 20 -26 33 -2 12 -7 22
-11 22 -4 0 -5 15 -2 33 4 31 5 31 12 7 7 -20 8 -18 6 12 -2 28 1 39 14 43 30
10 32 65 3 65 -8 0 -14 -6 -14 -12 0 -10 -2 -10 -8 -1 -10 16 -62 4 -62 -15 0
-8 7 -20 17 -27 14 -11 13 -13 -10 -17 -24 -5 -27 -2 -27 22 0 23 -3 26 -28
22 -20 -2 -34 4 -51 22 -14 14 -30 26 -38 26 -19 0 -73 100 -73 137 0 17 -4
33 -9 35 -5 2 -12 23 -14 48 -6 51 -24 98 -48 120 -9 8 -22 31 -29 50 -18 53
-84 180 -93 180 -15 0 -20 -33 -10 -76 12 -52 -3 -56 -27 -8 -8 17 -27 44 -42
60 -23 23 -28 25 -28 11 0 -15 -3 -16 -20 -7 -11 6 -20 19 -20 30 0 18 -19 39
-21 23z m-74 -43 c3 -5 -1 -10 -9 -10 -9 0 -16 5 -16 10 0 6 4 10 9 10 6 0 13
-4 16 -10z m-107 -102 c-40 -8 -48 -2 -23 16 15 10 23 11 37 2 16 -10 15 -12
-14 -18z m-153 -28 c3 -5 2 -10 -4 -10 -5 0 -13 5 -16 10 -3 6 -2 10 4 10 5 0
13 -4 16 -10z m1715 -1005 c0 -9 -59 -35 -80 -35 -31 0 -24 16 13 28 35 11 67
15 67 7z m1121 -188 c-16 -16 -26 0 -10 19 9 11 15 12 17 4 2 -6 -1 -17 -7
-23z m309 13 c-6 -11 -13 -20 -16 -20 -2 0 0 9 6 20 6 11 13 20 16 20 2 0 0
-9 -6 -20z m-530 -70 c0 -5 -7 -10 -16 -10 -8 0 -12 5 -9 10 3 6 10 10 16 10
5 0 9 -4 9 -10z m-37 -25 c4 -8 2 -17 -3 -20 -6 -4 -10 3 -10 14 0 25 6 27 13
6z m802 -265 c-3 -5 -10 -10 -16 -10 -5 0 -9 5 -9 10 0 6 7 10 16 10 8 0 12
-4 9 -10z m-165 -9 c0 -12 -20 -25 -27 -18 -7 7 6 27 18 27 5 0 9 -4 9 -9z
m-260 -41 c0 -5 -4 -10 -10 -10 -5 0 -10 5 -10 10 0 6 5 10 10 10 6 0 10 -4
10 -10z m365 -73 c0 -26 -20 -25 -23 2 -3 16 1 22 10 19 7 -3 13 -12 13 -21z
m-97 -82 c-3 -3 -9 2 -12 12 -6 14 -5 15 5 6 7 -7 10 -15 7 -18z m-1898 -69
c0 -3 -4 -8 -10 -11 -5 -3 -10 -1 -10 4 0 6 5 11 10 11 6 0 10 -2 10 -4z m-24
-68 c-18 -26 -22 -17 -5 14 6 11 13 17 16 15 3 -3 -2 -16 -11 -29z m2009 12
c3 -5 -1 -10 -9 -10 -9 0 -16 5 -16 10 0 6 4 10 9 10 6 0 13 -4 16 -10z m94
-20 c10 0 61 -75 61 -90 0 -5 -7 -10 -15 -10 -8 0 -14 6 -12 13 1 7 -7 12 -20
11 -18 0 -20 3 -12 17 10 20 4 26 -35 33 -32 6 -46 17 -30 23 6 2 20 10 30 18
16 12 19 12 22 -1 2 -8 7 -14 11 -14z m-2102 -72 c-2 -13 -4 -5 -4 17 -1 22 1
32 4 23 2 -10 2 -28 0 -40z m1988 2 c3 -5 1 -10 -4 -10 -6 0 -11 5 -11 10 0 6
2 10 4 10 3 0 8 -4 11 -10z m292 -16 c-3 -3 -12 -4 -19 -1 -8 3 -5 6 6 6 11 1
17 -2 13 -5z m-28 -49 c-20 -20 -121 -25 -127 -6 -3 9 1 11 14 7 11 -3 39 -2
64 3 65 13 66 13 49 -4z m-220 -36 c-7 -4 -17 -5 -22 -2 -5 3 -3 9 4 14 7 4
17 5 22 2 5 -3 3 -9 -4 -14z m71 11 c-20 -13 -33 -13 -25 0 3 6 14 10 23 10
15 0 15 -2 2 -10z m-1980 -10 c0 -5 -4 -10 -10 -10 -5 0 -10 5 -10 10 0 6 5
10 10 10 6 0 10 -4 10 -10z m2385 -50 c-3 -5 -11 -10 -16 -10 -6 0 -7 5 -4 10
3 6 11 10 16 10 6 0 7 -4 4 -10z m-70 -30 c-3 -5 -11 -10 -16 -10 -6 0 -7 5
-4 10 3 6 11 10 16 10 6 0 7 -4 4 -10z m-305 -21 c0 -5 -7 -9 -15 -9 -15 0
-20 12 -9 23 8 8 24 -1 24 -14z m265 11 c3 -5 1 -10 -4 -10 -6 0 -11 5 -11 10
0 6 2 10 4 10 3 0 8 -4 11 -10z m-41 -36 c-12 -17 -23 -24 -36 -21 -11 3 -22
-1 -25 -9 -3 -9 -13 -12 -23 -9 -11 3 -20 -1 -24 -10 -4 -11 -13 -14 -32 -9
-20 5 -25 4 -22 -7 3 -8 1 -22 -4 -31 -8 -17 -9 -17 -27 0 -16 15 -16 19 -3
35 8 9 23 17 32 17 9 0 21 5 26 10 6 6 25 12 42 13 18 1 34 8 37 15 5 13 40
30 63 31 9 1 8 -6 -4 -25z m-474 -13 c0 -5 -7 -11 -14 -14 -10 -4 -13 -1 -9 9
6 15 23 19 23 5z m40 -1 c0 -5 -4 -10 -10 -10 -5 0 -10 5 -10 10 0 6 5 10 10
10 6 0 10 -4 10 -10z m113 -12 c7 -27 3 -32 -18 -25 -19 8 -20 47 -1 47 7 0
16 -10 19 -22z m582 -65 c-3 -16 -11 -32 -16 -38 -10 -9 -3 38 8 58 10 17 15
5 8 -20z m-548 -10 c-4 -3 1 -12 11 -19 16 -12 16 -13 0 -14 -9 0 -20 5 -23
10 -6 10 2 30 12 30 4 0 3 -3 0 -7z m73 -3 c0 -5 -7 -7 -15 -4 -8 4 -15 8 -15
10 0 2 7 4 15 4 8 0 15 -4 15 -10z m-170 -66 c0 -18 -14 -18 -30 1 -16 19 -3
40 16 24 8 -6 14 -18 14 -25z m-230 -10 c0 -2 -9 -4 -21 -4 -11 0 -18 4 -14
10 5 8 35 3 35 -6z m136 -32 c-9 -27 -36 -17 -36 12 0 31 11 39 28 22 8 -8 11
-22 8 -34z m294 8 c0 -5 -4 -10 -10 -10 -5 0 -10 5 -10 10 0 6 5 10 10 10 6 0
10 -4 10 -10z m-8 -54 c4 -28 25 -31 24 -4 -1 14 6 24 17 26 16 3 17 1 8 -17
-8 -14 -8 -22 -1 -26 6 -4 8 -15 5 -24 -3 -10 1 -24 10 -31 17 -14 21 -35 5
-25 -6 4 -10 -5 -10 -19 0 -27 -14 -34 -26 -15 -3 6 -1 15 6 19 15 9 6 40 -11
40 -6 0 -13 -9 -16 -20 -6 -24 -30 -26 -60 -5 -13 9 -24 11 -28 6 -3 -6 -12
-8 -21 -4 -12 4 -11 8 6 20 24 17 27 45 4 41 -23 -4 -29 18 -7 26 10 4 19 3
21 -2 1 -5 9 -18 17 -28 11 -15 16 -17 26 -6 11 10 10 15 -4 29 -15 16 -15 18
1 34 19 18 28 14 34 -15z m115 28 c-3 -3 -12 -4 -19 -1 -8 3 -5 6 6 6 11 1 17
-2 13 -5z m-287 -22 c0 -13 -12 -22 -22 -16 -10 6 -1 24 13 24 5 0 9 -4 9 -8z
m-80 -12 c0 -5 -5 -10 -11 -10 -5 0 -7 5 -4 10 3 6 8 10 11 10 2 0 4 -4 4 -10z
m-40 -10 c0 -5 -5 -10 -11 -10 -5 0 -7 5 -4 10 3 6 8 10 11 10 2 0 4 -4 4 -10z
m-32 -18 c-5 -23 -28 -27 -28 -4 0 10 7 19 15 19 9 0 15 -7 13 -15z m211 -102
c6 0 11 -7 11 -15 0 -8 -7 -15 -15 -15 -8 0 -15 6 -15 14 0 8 -7 17 -16 20 -8
3 -12 11 -8 17 5 9 11 7 19 -4 7 -10 17 -17 24 -17z m66 8 c6 -16 1 -26 -16
-39 -13 -10 -24 -24 -24 -31 0 -7 -8 -14 -17 -16 -24 -5 -23 10 2 31 11 9 23
31 27 47 7 35 19 39 28 8z m25 -38 c0 -5 -5 -10 -11 -10 -5 0 -7 5 -4 10 3 6
8 10 11 10 2 0 4 -4 4 -10z m-33 -52 c-3 -7 -5 -2 -5 12 0 14 2 19 5 13 2 -7
2 -19 0 -25z m-217 12 c0 -5 -4 -10 -10 -10 -5 0 -10 5 -10 10 0 6 5 10 10 10
6 0 10 -4 10 -10z m177 -72 c-3 -7 -5 -2 -5 12 0 14 2 19 5 13 2 -7 2 -19 0
-25z m48 -18 c3 -5 2 -10 -4 -10 -5 0 -13 5 -16 10 -3 6 -2 10 4 10 5 0 13 -4
16 -10z m58 -65 c9 -4 24 -5 32 -1 19 7 20 -11 1 -29 -12 -12 -15 -12 -20 0
-8 22 -37 18 -43 -5 -6 -21 -15 -25 -27 -12 -4 4 -12 8 -17 8 -5 1 -11 3 -14
4 -6 3 -22 7 -35 9 -5 0 -10 6 -10 12 0 11 16 9 53 -6 12 -5 17 -2 17 9 0 9
-8 16 -19 16 -10 0 -21 8 -23 18 -5 17 -3 17 41 1 25 -9 54 -19 64 -24z m27
-72 c0 -13 -3 -13 -15 -3 -8 7 -15 16 -15 21 0 5 7 6 15 3 8 -4 15 -13 15 -21z
m-110 2 c8 -9 8 -15 2 -15 -18 0 -42 12 -42 21 0 14 26 10 40 -6z m-1640 -55
c0 -5 -5 -10 -11 -10 -5 0 -7 5 -4 10 3 6 8 10 11 10 2 0 4 -4 4 -10z m2528
-2 c-6 -18 -25 -21 -31 -5 -3 8 3 13 15 14 10 1 18 -3 16 -9z m-169 -52 c-3
-3 -11 5 -18 17 -13 21 -12 21 5 5 10 -10 16 -20 13 -22z m300 24 c11 0 11 -3
1 -15 -9 -11 -16 -12 -25 -5 -7 6 -20 8 -29 4 -9 -3 -16 -2 -16 3 0 17 14 24
35 19 11 -3 26 -6 34 -6z m184 -40 c6 -22 -18 -29 -26 -7 -4 7 -8 4 -12 -10
-6 -17 -55 -41 -55 -26 0 17 24 43 40 43 10 0 22 5 25 10 10 16 22 12 28 -10z
m-263 -10 c-20 -13 -33 -13 -25 0 3 6 14 10 23 10 15 0 15 -2 2 -10z m149 -1
c-18 -11 -39 -11 -39 0 0 5 12 9 26 9 18 0 22 -3 13 -9z m-341 -35 c-4 -3 -12
5 -18 18 -12 22 -12 22 6 6 10 -10 15 -20 12 -24z m97 27 c10 -17 -12 -21 -25
-6 -10 12 -10 15 3 15 9 0 18 -4 22 -9z m341 -63 c1 -7 5 -22 9 -33 5 -15 4
-16 -3 -6 -5 7 -14 11 -19 8 -5 -3 -10 10 -10 30 -1 25 2 32 10 24 6 -6 12
-16 13 -23z m-406 18 c0 -3 -4 -8 -10 -11 -5 -3 -10 -1 -10 4 0 6 5 11 10 11
6 0 10 -2 10 -4z m300 -26 c-8 -5 -17 -7 -19 -4 -3 3 1 9 9 14 8 5 17 7 19 4
3 -3 -1 -9 -9 -14z m60 -60 c0 -11 -6 -20 -14 -20 -9 0 -12 7 -9 20 3 11 9 20
14 20 5 0 9 -9 9 -20z m-160 -40 c0 -5 -7 -10 -15 -10 -8 0 -15 5 -15 10 0 6
7 10 15 10 8 0 15 -4 15 -10z m170 -20 c0 -5 -4 -10 -10 -10 -5 0 -10 5 -10
10 0 6 5 10 10 10 6 0 10 -4 10 -10z m-3190 -576 c0 -8 -5 -12 -10 -9 -6 4 -8
11 -5 16 9 14 15 11 15 -7z"/>
<path d="M50 5361 c0 -5 7 -12 16 -15 24 -9 28 -7 14 9 -14 17 -30 20 -30 6z"/>
<path d="M2277 5364 c-12 -13 -7 -34 12 -53 17 -17 21 -18 32 -5 10 12 6 18
-12 16 -3 -1 -5 9 -5 20 1 21 -15 34 -27 22z"/>
<path d="M9305 5339 c-48 -27 -75 -53 -75 -71 0 -14 16 -9 41 13 15 13 31 18
46 14 12 -3 33 0 47 7 26 11 35 28 16 28 -6 0 -14 9 -18 19 -7 18 -10 17 -57
-10z"/>
<path d="M620 5306 c0 -9 5 -16 10 -16 6 0 10 4 10 9 0 6 -4 13 -10 16 -5 3
-10 -1 -10 -9z"/>
<path d="M7762 5266 c-18 -6 -30 -15 -26 -19 5 -4 -2 -10 -14 -14 -23 -6 -25
-16 -16 -76 8 -43 28 -45 29 -3 0 15 6 31 14 35 8 6 11 16 6 31 -7 21 -5 22
19 16 32 -8 78 3 73 17 -6 18 -50 25 -85 13z"/>
<path d="M9624 5256 c-3 -7 3 -42 12 -77 27 -99 23 -272 -10 -443 -15 -76 -31
-146 -36 -156 -5 -10 -26 -20 -48 -23 -65 -11 -157 -64 -209 -121 -84 -92
-188 -329 -195 -445 -3 -43 -2 -45 31 -53 20 -6 37 -6 43 0 5 5 13 48 18 96
11 97 42 174 115 291 58 93 114 134 213 155 42 9 57 8 105 -10 104 -39 159
-114 206 -281 25 -91 26 -139 5 -225 -10 -38 -13 -69 -8 -74 5 -5 26 -11 46
-15 36 -7 37 -6 45 32 4 21 8 85 7 143 0 89 -5 118 -28 185 -57 162 -135 267
-221 295 -19 6 -37 20 -40 30 -5 16 27 225 65 420 8 41 4 56 -38 162 -45 112
-66 144 -78 114z m-44 -734 c0 -5 -24 -14 -54 -21 -66 -15 -132 -56 -173 -107
-17 -21 -56 -90 -88 -152 -31 -63 -59 -111 -62 -108 -7 7 89 206 126 260 34
49 100 99 159 121 42 15 92 19 92 7z m-395 -562 c-5 -8 -11 -8 -17 -2 -6 6 -7
16 -3 22 5 8 11 8 17 2 6 -6 7 -16 3 -22z m731 -55 c-3 -9 -11 -13 -16 -10 -8
5 -7 11 1 21 14 18 24 11 15 -11z"/>
<path d="M7810 5170 c0 -5 5 -10 10 -10 6 0 10 5 10 10 0 6 -4 10 -10 10 -5 0
-10 -4 -10 -10z"/>
<path d="M7780 5130 c-6 -11 -16 -17 -22 -14 -7 4 -8 3 -4 -4 10 -16 41 -15
55 2 9 10 8 16 -3 25 -12 10 -17 8 -26 -9z"/>
<path d="M7831 5103 c-1 -33 11 -43 25 -22 3 6 2 14 -3 18 -6 3 -13 13 -16 21
-3 8 -6 0 -6 -17z"/>
<path d="M7890 5069 c0 -5 5 -7 10 -4 6 3 10 8 10 11 0 2 -4 4 -10 4 -5 0 -10
-5 -10 -11z"/>
<path d="M7764 5041 c20 -22 26 -25 26 -13 0 4 -10 13 -22 21 -23 14 -23 14
-4 -8z"/>
<path d="M7934 5029 c-9 -15 15 -56 37 -62 16 -4 21 -29 8 -41 -3 -3 -30 8
-62 24 -31 16 -59 25 -62 20 -3 -5 -26 0 -51 11 -25 12 -48 18 -51 16 -12 -13
94 -60 167 -74 44 -9 80 -20 80 -25 0 -4 8 -8 18 -8 32 0 33 -12 2 -42 -29
-27 -90 -40 -90 -19 0 15 -74 0 -89 -18 -13 -15 -13 -15 -8 2 4 9 4 17 1 17
-12 0 -44 -21 -44 -29 0 -22 115 -44 144 -29 11 6 35 12 55 13 20 1 42 3 49 4
7 0 12 14 12 32 0 18 4 28 10 24 6 -4 8 -10 5 -15 -3 -4 1 -10 8 -13 18 -7 67
3 67 14 0 5 5 9 11 9 6 0 9 -7 5 -15 -3 -9 0 -15 9 -15 12 0 15 14 15 60 0 33
-4 60 -10 60 -5 0 -10 -7 -10 -15 0 -9 -6 -12 -15 -9 -12 5 -13 10 -4 20 9 11
7 14 -12 14 -13 0 -40 14 -59 30 -19 16 -41 30 -47 30 -7 0 -13 4 -13 10 0 5
-6 7 -13 4 -8 -3 -20 2 -27 11 -15 18 -26 19 -36 4z m226 -159 c0 -5 -7 -7
-15 -4 -8 4 -12 10 -9 15 6 11 24 2 24 -11z"/>
<path d="M7804 5011 c7 -11 46 -35 46 -28 0 3 -12 12 -26 22 -15 9 -23 12 -20
6z"/>
<path d="M3190 4940 c0 -12 -4 -19 -8 -16 -5 3 -22 2 -38 -3 l-29 -8 30 -16
c27 -15 28 -16 7 -17 -22 0 -22 -1 -5 -26 16 -25 16 -27 -1 -36 -15 -8 -16
-12 -4 -26 8 -10 13 -23 12 -29 -1 -7 -2 -18 -3 -24 0 -5 -5 -8 -10 -5 -4 3
-16 -3 -26 -14 -10 -12 -13 -20 -7 -20 7 0 12 5 12 10 0 6 5 10 10 10 19 0 10
-36 -19 -70 -24 -29 -27 -38 -17 -55 6 -11 14 -22 18 -25 4 -3 8 -26 10 -50 3
-41 0 -47 -30 -68 -18 -13 -37 -20 -44 -16 -6 4 -8 3 -5 -2 8 -13 -128 -54
-198 -59 -64 -5 -158 -44 -151 -62 3 -7 1 -15 -4 -18 -13 -8 -13 -25 0 -25 6
0 10 7 10 15 0 11 8 15 27 13 21 -2 30 3 41 26 13 26 18 28 58 23 24 -2 41 -1
38 4 -3 5 0 9 5 9 6 0 11 -4 11 -10 0 -5 10 -9 22 -7 29 3 36 -30 11 -48 -25
-20 -8 -19 22 1 15 10 22 21 18 31 -4 11 -2 14 8 11 8 -3 14 -14 14 -25 0 -12
8 -30 18 -41 12 -13 15 -22 8 -27 -19 -11 -12 -28 8 -22 15 3 21 -1 23 -16 5
-31 28 -34 28 -3 0 28 9 33 28 14 8 -8 15 -8 27 2 13 11 27 7 86 -24 39 -20
73 -36 75 -36 12 0 1 38 -21 76 -21 35 -38 49 -95 75 -86 40 -91 60 -21 83 47
15 81 13 81 -4 0 -5 12 -8 28 -7 22 2 30 -4 41 -30 19 -43 32 -43 20 -1 -5 18
-9 34 -9 35 0 8 -57 53 -67 53 -7 0 -13 5 -13 10 0 6 7 10 16 10 11 0 14 5 10
16 -4 9 -1 23 5 30 9 11 9 14 0 14 -7 0 -10 4 -6 10 3 5 12 7 20 3 9 -3 15 1
15 10 0 8 -6 17 -12 20 -10 3 -10 8 -2 17 8 8 18 9 30 2 11 -5 30 -8 44 -6
l25 4 -24 -14 c-23 -13 -23 -14 -5 -24 11 -5 28 -6 41 -1 22 8 49 47 45 63 -2
5 6 6 16 4 18 -5 19 -1 17 44 -2 45 0 51 33 78 20 17 45 30 54 30 22 0 60 -20
71 -37 4 -7 21 -13 36 -13 27 0 28 2 26 40 -4 72 -62 136 -133 145 -26 4 -54
9 -63 11 -11 3 -19 -3 -22 -17 -3 -11 -10 -18 -16 -14 -6 3 -11 1 -11 -5 0 -6
10 -14 22 -19 16 -6 18 -9 7 -13 -8 -3 -46 9 -84 28 -92 44 -122 45 -72 3 19
-16 20 -20 7 -29 -12 -8 -13 -12 -2 -19 16 -9 13 -42 -4 -48 -5 -2 -18 11 -26
29 l-17 33 -1 -40 c-2 -33 -3 -36 -9 -16 -4 14 -4 48 -1 77 6 50 4 53 -27 79
-32 25 -33 25 -33 5z m15 -210 c3 -5 1 -10 -4 -10 -6 0 -11 5 -11 10 0 6 2 10
4 10 3 0 8 -4 11 -10z m-452 -417 c-7 -2 -19 -2 -25 0 -7 3 -2 5 12 5 14 0 19
-2 13 -5z"/>
<path d="M8535 4920 c-3 -5 -1 -10 4 -10 6 0 11 5 11 10 0 6 -2 10 -4 10 -3 0
-8 -4 -11 -10z"/>
<path d="M3099 4875 c-12 -19 -19 -64 -11 -69 17 -10 27 10 22 44 -3 19 -8 31
-11 25z"/>
<path d="M9171 4804 c0 -11 3 -14 6 -6 3 7 2 16 -1 19 -3 4 -6 -2 -5 -13z"/>
<path d="M9140 4739 c-22 -18 -22 -19 -3 -10 12 6 25 16 28 21 9 15 3 12 -25
-11z"/>
<path d="M8125 4650 c3 -5 13 -10 21 -10 8 0 12 5 9 10 -3 6 -13 10 -21 10 -8
0 -12 -4 -9 -10z"/>
<path d="M3477 4598 c-11 -12 -16 -26 -12 -36 5 -13 10 -10 21 17 17 40 15 44
-9 19z"/>
<path d="M3500 4548 c-6 -24 -13 -49 -16 -56 -9 -28 -15 -152 -8 -164 11 -17
43 103 51 190 7 82 -9 100 -27 30z"/>
<path d="M3461 4522 c-1 -13 -6 -32 -11 -42 -6 -12 -7 -21 -1 -25 11 -6 26 57
18 77 -3 7 -6 3 -6 -10z"/>
<path d="M3356 4484 c-9 -22 -8 -24 9 -24 8 0 15 6 15 14 0 22 -17 28 -24 10z"/>
<path d="M4630 4437 c0 -41 4 -57 13 -57 10 0 12 12 7 50 -9 70 -20 74 -20 7z"/>
<path d="M1690 4420 c0 -13 5 -20 13 -17 6 2 12 10 12 17 0 7 -6 15 -12 18 -8
2 -13 -5 -13 -18z"/>
<path d="M8545 4419 c-22 -12 -48 -28 -57 -36 -16 -14 -16 -17 6 -47 13 -17
42 -76 66 -131 34 -79 44 -116 48 -175 4 -75 4 -77 -51 -190 -99 -204 -124
-378 -106 -720 6 -112 9 -223 5 -246 -4 -33 0 -56 20 -101 15 -32 34 -80 44
-108 10 -27 23 -63 29 -80 l12 -29 23 39 c13 22 28 63 34 90 11 52 139 401
167 456 13 25 16 63 15 207 -2 359 8 729 20 753 7 13 30 48 52 77 l40 53 -24
28 c-13 16 -43 54 -68 85 l-45 56 -74 -2 c-65 -1 -76 1 -92 20 -21 27 -16 27
-64 1z m185 -386 c-1 -16 -47 -83 -53 -77 -8 8 33 84 45 84 4 0 8 -3 8 -7z
m30 -202 c0 -6 -4 -13 -10 -16 -5 -3 -10 1 -10 9 0 9 5 16 10 16 6 0 10 -4 10
-9z m-50 -258 c0 -7 -4 -13 -10 -13 -5 0 -10 12 -10 28 0 21 2 24 10 12 5 -8
10 -21 10 -27z m-52 -55 c-3 -7 -13 -15 -23 -16 -15 -4 -16 -2 -4 12 17 19 32
21 27 4z m-48 -48 c0 -5 -4 -10 -10 -10 -5 0 -10 5 -10 10 0 6 5 10 10 10 6 0
10 -4 10 -10z"/>
<path d="M3438 4423 c-5 -25 -2 -63 4 -63 4 0 8 16 8 35 0 31 -7 48 -12 28z"/>
<path d="M2862 4300 c-7 -11 -8 -20 -3 -20 9 0 24 30 18 36 -1 2 -8 -6 -15
-16z"/>
<path d="M3441 4315 c-1 -5 -3 -35 -3 -65 0 -31 -5 -58 -11 -62 -9 -6 -9 -8 1
-8 19 0 23 21 19 86 -2 33 -4 55 -6 49z"/>
<path d="M2800 4289 c0 -5 5 -7 10 -4 6 3 10 8 10 11 0 2 -4 4 -10 4 -5 0 -10
-5 -10 -11z"/>
<path d="M2920 4244 c-6 -14 -10 -29 -10 -33 0 -5 -10 -11 -22 -14 -18 -5 -19
-8 -8 -21 17 -22 30 -20 30 4 0 11 4 20 9 20 5 0 11 16 13 35 5 42 1 44 -12 9z"/>
<path d="M2620 4220 c0 -5 5 -10 10 -10 6 0 10 5 10 10 0 6 -4 10 -10 10 -5 0
-10 -4 -10 -10z"/>
<path d="M2577 4074 c-15 -16 -5 -24 29 -24 24 0 34 4 32 13 -5 13 -50 22 -61
11z"/>
<path d="M9181 3884 c0 -11 3 -14 6 -6 3 7 2 16 -1 19 -3 4 -6 -2 -5 -13z"/>
<path d="M8242 3830 c0 -19 2 -27 5 -17 2 9 2 25 0 35 -3 9 -5 1 -5 -18z"/>
<path d="M9857 3826 c-4 -10 -5 -21 -2 -24 9 -9 17 6 13 25 -3 17 -4 17 -11
-1z"/>
<path d="M9127 3783 c-3 -5 -7 -39 -11 -78 -4 -43 -3 -64 2 -55 5 8 12 43 16
78 5 58 3 73 -7 55z"/>
<path d="M3470 3738 c-12 -22 -12 -22 6 -6 10 10 15 20 12 24 -4 3 -12 -5 -18
-18z"/>
<path d="M8219 3613 c-9 -58 -13 -160 -12 -301 2 -183 6 -228 27 -320 24 -109
61 -331 72 -434 3 -32 10 -58 15 -58 5 0 9 6 9 13 0 46 -74 500 -106 645 -2
12 -1 22 4 22 16 0 86 -362 112 -580 10 -88 31 -136 38 -90 4 24 -52 393 -78
510 -40 186 -49 240 -61 362 -10 100 -10 145 0 214 8 54 9 90 3 96 -6 6 -15
-23 -23 -79z"/>
<path d="M3493 3524 c-3 -8 -1 -20 6 -27 8 -8 11 -4 11 16 0 30 -7 35 -17 11z"/>
<path d="M3750 3341 c0 -5 5 -13 10 -16 6 -3 10 -2 10 4 0 5 -4 13 -10 16 -5
3 -10 2 -10 -4z"/>
<path d="M3562 3329 c2 -7 10 -15 17 -17 8 -3 12 1 9 9 -2 7 -10 15 -17 17 -8
3 -12 -1 -9 -9z"/>
<path d="M3880 3330 c-21 -7 -19 -8 18 -9 23 -1 42 4 42 9 0 12 -24 12 -60 0z"/>
<path d="M5174 3173 c-28 -4 -32 -8 -37 -41 -2 -20 -3 -39 -1 -41 2 -2 43 -6
91 -8 49 -2 146 -8 217 -13 164 -13 373 -13 381 -1 3 5 -3 17 -12 26 -15 15
-27 16 -87 9 -39 -4 -116 -8 -171 -8 -100 -1 -100 -1 -172 42 -75 43 -104 48
-209 35z"/>
<path d="M4868 3163 c-37 -3 -48 -8 -48 -21 0 -35 15 -40 134 -48 l119 -7 -7
29 c-4 16 -10 32 -14 36 -9 9 -126 17 -184 11z"/>
<path d="M10511 3124 c0 -11 3 -14 6 -6 3 7 2 16 -1 19 -3 4 -6 -2 -5 -13z"/>
<path d="M10496 3085 c-3 -9 -6 -22 -5 -28 0 -7 5 -1 10 12 5 13 8 26 5 28 -2
2 -6 -3 -10 -12z"/>
<path d="M4801 3060 c-1 -19 -9 -57 -18 -84 -14 -39 -27 -55 -60 -75 -25 -15
-43 -33 -43 -43 0 -11 -8 -18 -20 -18 -11 0 -20 -4 -20 -10 0 -5 11 -10 25
-10 28 0 29 -4 14 -49 -9 -24 -16 -31 -33 -29 -13 2 -21 -2 -21 -12 0 -9 8
-14 20 -13 33 4 49 -5 36 -21 -14 -17 -4 -26 31 -26 15 0 28 -4 28 -10 0 -5
-4 -10 -10 -10 -5 0 -10 -7 -10 -15 0 -20 15 -19 35 1 11 12 14 25 10 46 -4
17 -2 35 5 43 7 8 8 15 3 15 -5 0 -16 -11 -23 -25 -7 -14 -22 -25 -32 -25 -25
0 -23 16 3 23 13 3 18 10 14 17 -4 7 -16 10 -26 7 -22 -6 -26 11 -4 19 8 4 12
10 9 15 -3 5 0 9 5 9 6 0 11 7 11 16 0 8 -4 13 -9 9 -5 -3 -11 7 -13 22 -2 23
5 34 37 58 64 49 92 128 65 190 -7 16 -9 14 -9 -15z"/>
<path d="M4856 3013 c-10 -10 -7 -57 10 -168 l16 -104 30 15 c25 13 64 14 296
5 147 -6 301 -15 342 -20 41 -6 221 -18 400 -26 179 -9 340 -21 358 -26 23 -8
38 -22 50 -47 21 -45 42 -49 238 -53 l132 -2 57 33 c55 31 63 33 179 36 l121
3 3 26 c3 24 1 25 -45 25 -65 0 -605 28 -778 39 -77 6 -282 15 -455 21 -359
13 -679 35 -693 49 -14 14 -4 42 24 63 27 21 103 33 314 53 151 14 197 45 68
46 -196 1 -637 24 -653 34 -4 2 -10 2 -14 -2z"/>
<path d="M10466 2988 c-37 -128 -36 -126 -15 -181 11 -28 31 -110 45 -182 27
-145 39 -206 52 -250 8 -27 12 -30 44 -27 53 5 139 -14 199 -42 83 -40 86 -36
33 44 -19 30 -53 92 -75 136 -33 70 -43 82 -64 82 -14 0 -25 -4 -25 -9 0 -5 7
-9 16 -9 13 0 12 -5 -5 -29 -12 -16 -21 -35 -21 -43 0 -7 -9 -26 -20 -43 -11
-16 -20 -24 -20 -16 0 7 -11 22 -25 33 -17 13 -25 29 -25 49 0 32 -20 104 -51
183 -11 27 -17 51 -15 53 2 3 18 -3 36 -12 30 -15 31 -15 21 2 -5 10 -28 35
-51 57 l-41 38 6 62 c3 33 8 76 11 94 6 37 -1 43 -10 10z m231 -553 c-3 -19
-2 -35 4 -35 5 0 9 7 9 15 0 9 6 12 15 9 8 -4 15 -15 15 -26 0 -10 4 -17 9
-14 12 8 21 -18 11 -34 -6 -10 -16 -10 -51 2 -43 15 -44 16 -41 54 3 50 9 64
23 64 8 0 10 -12 6 -35z m-77 -65 c0 -5 -5 -10 -11 -10 -5 0 -7 5 -4 10 3 6 8
10 11 10 2 0 4 -4 4 -10z"/>
<path d="M4180 2930 c0 -5 5 -10 11 -10 5 0 7 5 4 10 -3 6 -8 10 -11 10 -2 0
-4 -4 -4 -10z"/>
<path d="M4223 2926 c-11 -13 -34 -137 -27 -145 2 -2 5 2 7 10 29 99 40 129
48 129 6 0 7 5 4 10 -8 13 -18 12 -32 -4z"/>
<path d="M4160 2900 c0 -5 5 -10 11 -10 5 0 7 5 4 10 -3 6 -8 10 -11 10 -2 0
-4 -4 -4 -10z"/>
<path d="M4730 2850 c-9 -6 -10 -10 -3 -10 6 0 15 5 18 10 8 12 4 12 -15 0z"/>
<path d="M4561 2817 c-16 -30 -13 -40 8 -28 7 5 11 19 9 31 -3 23 -3 23 -17
-3z"/>
<path d="M4600 2825 c0 -8 5 -15 10 -15 6 0 10 7 10 15 0 8 -4 15 -10 15 -5 0
-10 -7 -10 -15z"/>
<path d="M4636 2795 c-3 -8 -1 -15 4 -15 13 0 22 18 11 24 -5 3 -11 -1 -15 -9z"/>
<path d="M4747 2789 c4 -12 0 -25 -8 -31 -12 -8 -11 -9 1 -5 17 4 27 57 12 57
-6 0 -8 -9 -5 -21z"/>
<path d="M4448 2753 c6 -2 18 -2 25 0 6 3 1 5 -13 5 -14 0 -19 -2 -12 -5z"/>
<path d="M4500 2750 c0 -5 5 -10 11 -10 5 0 7 5 4 10 -3 6 -8 10 -11 10 -2 0
-4 -4 -4 -10z"/>
<path d="M4590 2701 c0 -12 5 -21 10 -21 6 0 10 6 10 14 0 8 -4 18 -10 21 -5
3 -10 -3 -10 -14z"/>
<path d="M4170 2701 c0 -6 5 -13 10 -16 6 -3 10 1 10 9 0 9 -4 16 -10 16 -5 0
-10 -4 -10 -9z"/>
<path d="M2699 2685 c-3 -2 -68 -7 -145 -10 -76 -3 -190 -10 -252 -16 -62 -7
-126 -9 -142 -5 -26 5 -32 1 -45 -24 -8 -16 -15 -32 -15 -36 0 -3 66 -5 148
-4 81 2 182 2 226 1 57 -1 85 3 102 14 16 10 36 13 62 9 62 -10 182 34 182 67
0 9 -112 13 -121 4z"/>
<path d="M4497 2684 c-4 -4 -7 -14 -7 -23 0 -11 3 -12 11 -4 6 6 10 16 7 23
-2 6 -7 8 -11 4z"/>
<path d="M4535 2680 c-8 -13 5 -13 25 0 13 8 13 10 -2 10 -9 0 -20 -4 -23 -10z"/>
<path d="M4627 2673 c-13 -13 -7 -21 13 -16 11 3 20 9 20 14 0 10 -24 12 -33
2z"/>
<path d="M4677 2644 c-3 -4 -2 -14 3 -24 5 -10 6 -20 3 -24 -3 -3 -1 -6 5 -6
7 0 12 9 12 20 0 11 0 23 1 27 1 10 -16 15 -24 7z"/>
<path d="M4590 2630 c0 -5 5 -10 10 -10 6 0 10 5 10 10 0 6 -4 10 -10 10 -5 0
-10 -4 -10 -10z"/>
<path d="M4515 2620 c4 -6 11 -8 16 -5 14 9 11 15 -7 15 -8 0 -12 -5 -9 -10z"/>
<path d="M10670 2606 c0 -2 7 -6 15 -10 8 -3 15 -1 15 4 0 6 -7 10 -15 10 -8
0 -15 -2 -15 -4z"/>
<path d="M4590 2555 c0 -8 5 -15 10 -15 6 0 10 7 10 15 0 8 -4 15 -10 15 -5 0
-10 -7 -10 -15z"/>
<path d="M3171 2527 c2 -1 13 -9 24 -17 19 -14 19 -14 6 3 -7 9 -18 17 -24 17
-6 0 -8 -1 -6 -3z"/>
<path d="M3727 2511 c3 -12 10 -21 15 -21 13 0 6 32 -9 37 -7 3 -9 -3 -6 -16z"/>
<path d="M9195 2508 c2 -29 53 -47 130 -46 l60 0 -60 9 c-33 5 -71 17 -85 27
-43 31 -47 32 -45 10z"/>
<path d="M3940 2494 c0 -8 5 -12 10 -9 6 4 8 11 5 16 -9 14 -15 11 -15 -7z"/>
<path d="M3220 2490 c0 -5 5 -10 11 -10 5 0 7 5 4 10 -3 6 -8 10 -11 10 -2 0
-4 -4 -4 -10z"/>
<path d="M4591 2468 c-11 -11 -17 -26 -14 -31 4 -6 12 -2 21 11 8 12 21 22 29
22 8 0 11 5 8 10 -10 15 -22 12 -44 -12z"/>
<path d="M4810 2434 c-31 -31 -40 -44 -28 -44 17 0 61 40 79 73 16 28 -3 17
-51 -29z"/>
<path d="M10977 2470 c-12 -28 -27 -105 -26 -135 1 -27 3 -25 25 24 21 45 24
61 16 90 -6 24 -11 31 -15 21z"/>
<path d="M3300 2422 c0 -12 19 -26 26 -19 2 2 -2 10 -11 17 -9 8 -15 8 -15 2z"/>
<path d="M4627 2423 c-4 -3 -7 -11 -7 -17 0 -6 5 -5 12 2 6 6 9 14 7 17 -3 3
-9 2 -12 -2z"/>
<path d="M3746 2391 c-4 -7 -5 -15 -2 -18 9 -9 19 4 14 18 -4 11 -6 11 -12 0z"/>
<path d="M4577 2393 c-10 -9 -9 -23 2 -23 5 0 11 7 15 15 5 15 -5 20 -17 8z"/>
<path d="M4380 2340 c0 -5 5 -10 10 -10 6 0 10 5 10 10 0 6 -4 10 -10 10 -5 0
-10 -4 -10 -10z"/>
<path d="M3937 2327 c-3 -7 1 -21 9 -32 18 -24 39 -7 29 24 -7 23 -30 28 -38
8z"/>
<path d="M8203 2303 c-13 -49 -9 -108 10 -136 l18 -27 25 25 c23 23 24 29 15
57 -6 17 -11 46 -11 64 0 19 -4 34 -9 34 -5 0 -16 3 -25 6 -11 4 -17 -3 -23
-23z"/>
<path d="M3797 2293 c-4 -3 -2 -12 4 -20 7 -7 14 -27 18 -45 6 -28 11 -31 46
-34 31 -3 35 -1 19 6 -12 5 -25 13 -29 19 -3 6 -11 8 -17 5 -7 -5 -9 -1 -5 9
12 32 -17 80 -36 60z"/>
<path d="M3870 2273 c1 -16 28 -43 44 -43 11 0 16 9 16 28 0 21 -2 24 -10 12
-8 -12 -13 -13 -30 -2 -11 7 -20 9 -20 5z"/>
<path d="M10937 2250 c-4 -15 5 -29 36 -55 22 -19 45 -35 51 -35 6 0 0 9 -13
19 -13 10 -29 33 -35 51 -13 40 -31 49 -39 20z"/>
<path d="M4710 2250 c0 -5 5 -10 10 -10 6 0 10 5 10 10 0 6 -4 10 -10 10 -5 0
-10 -4 -10 -10z"/>
<path d="M11505 2215 c128 -60 160 -65 40 -5 -55 27 -107 49 -115 49 -8 0 26
-20 75 -44z"/>
<path d="M3308 2223 l-56 -15 -8 -76 c-4 -43 -13 -87 -22 -99 -8 -13 -12 -29
-9 -36 8 -22 -27 -67 -70 -91 -28 -16 -39 -29 -41 -51 -2 -16 -11 -35 -20 -42
-16 -11 -16 -12 1 -13 9 0 26 -5 36 -11 15 -10 32 -5 92 24 41 19 108 51 149
71 41 20 93 49 115 66 25 19 64 35 105 44 36 8 100 30 143 50 42 20 84 36 92
36 8 0 15 3 15 6 0 14 -70 74 -85 74 -8 0 -70 18 -136 40 -91 31 -124 38 -134
30 -10 -8 -24 -8 -52 -1 -44 13 -41 13 -115 -6z m122 -70 c0 -42 -12 -52 -63
-59 -37 -5 -51 -3 -67 11 -18 16 -18 18 -2 35 27 28 55 39 95 40 34 0 37 -2
37 -27z"/>
<path d="M3947 2223 c-12 -11 -8 -23 9 -23 8 0 12 -5 9 -10 -4 -6 -10 -8 -15
-5 -5 3 -11 1 -14 -4 -10 -16 31 -23 53 -9 23 14 28 28 9 28 -6 0 -19 7 -28
15 -9 8 -20 12 -23 8z"/>
<path d="M11298 2203 c-37 -10 -16 -23 37 -23 30 0 55 4 55 9 0 18 -49 26 -92
14z"/>
<path d="M2273 2123 c-7 -2 -13 -9 -13 -15 0 -12 41 -6 41 7 1 12 -11 15 -28
8z"/>
<path d="M8350 2061 c0 -5 6 -11 13 -14 6 -2 9 -8 4 -12 -4 -5 -27 -4 -52 2
-31 7 -47 7 -56 -1 -8 -8 -13 -8 -16 2 -3 6 -18 12 -34 12 -21 0 -27 -4 -23
-14 7 -19 -52 -31 -107 -22 -22 4 -59 2 -81 -5 -22 -6 -75 -11 -117 -11 -41
-1 -98 -7 -126 -15 -88 -25 -125 -33 -173 -38 -26 -3 -101 -14 -167 -24 -66
-11 -141 -22 -167 -26 -26 -3 -50 -11 -54 -17 -4 -6 1 -8 12 -5 17 5 168 10
237 8 16 -1 26 -5 22 -10 -3 -6 2 -14 11 -19 25 -14 10 -29 -38 -36 -24 -4
-53 -13 -64 -21 -12 -8 -44 -13 -72 -13 -31 1 -60 -5 -75 -14 -13 -9 -45 -19
-71 -21 -26 -3 -49 -7 -52 -9 -2 -2 27 -14 64 -27 42 -14 68 -18 70 -11 2 5 8
7 14 4 6 -4 14 0 19 7 4 8 19 15 31 16 13 1 52 8 88 16 73 16 103 16 140 -1
25 -11 25 -11 -7 -11 -18 -1 -36 -7 -40 -14 -4 -7 -26 -18 -48 -24 -102 -30
-175 -59 -180 -72 -4 -10 1 -12 20 -7 14 4 40 0 59 -8 20 -8 38 -10 43 -5 5 5
22 5 41 -1 37 -10 55 -6 91 22 14 11 32 16 43 12 33 -10 92 -12 115 -3 14 5
25 4 29 -2 3 -6 13 -8 21 -5 9 4 22 1 29 -5 11 -9 14 -8 14 5 0 19 50 22 68 4
9 -9 13 -7 18 5 9 25 24 20 24 -8 0 -14 5 -25 10 -25 6 0 22 11 36 25 14 14
29 25 34 25 6 0 10 7 10 15 0 8 5 15 10 15 20 0 9 19 -20 37 -40 23 -38 33 9
33 27 0 41 -5 45 -16 5 -13 1 -15 -20 -10 -24 6 -25 6 -10 -9 9 -9 20 -13 26
-10 5 3 10 2 10 -4 0 -5 -6 -14 -12 -18 -7 -4 -24 -21 -38 -37 -24 -27 -24
-28 -4 -22 13 4 26 1 34 -9 9 -10 16 -12 25 -5 12 10 117 6 135 -5 6 -3 10 -2
10 4 0 5 -5 13 -10 16 -6 4 -7 11 -4 17 5 7 11 3 16 -11 8 -22 35 -24 31 -2
-4 16 14 13 20 -3 7 -17 42 -17 76 1 27 13 41 9 41 -13 0 -8 5 -14 10 -14 13
0 29 41 23 58 -7 17 12 15 31 -4 9 -8 16 -11 16 -5 0 6 7 11 15 11 17 0 21 35
5 45 -15 9 -12 25 5 25 18 0 29 40 20 70 -6 19 -3 21 32 19 21 0 63 8 93 20
30 12 56 21 57 21 2 0 3 -12 3 -27 0 -14 2 -24 5 -21 3 3 3 58 -1 122 l-7 116
-121 -7 c-112 -6 -120 -5 -107 10 12 15 10 17 -23 17 -20 0 -36 -4 -36 -9z
m-480 -91 c0 -5 -6 -10 -14 -10 -8 0 -18 5 -21 10 -3 6 3 10 14 10 12 0 21 -4
21 -10z m50 0 c0 -5 -7 -7 -15 -4 -8 4 -15 8 -15 10 0 2 7 4 15 4 8 0 15 -4
15 -10z m-206 -35 c-37 -17 -54 -46 -22 -37 14 3 19 1 14 -6 -4 -7 -15 -12
-26 -12 -10 0 -20 -7 -24 -15 -3 -8 -10 -15 -17 -15 -6 0 -9 6 -6 14 8 21 0
24 -40 16 -19 -5 -44 -5 -55 -1 -14 5 -4 10 39 19 32 7 69 21 83 32 14 11 39
19 55 19 l30 -1 -31 -13z m121 -45 c-3 -5 -10 -10 -16 -10 -5 0 -9 5 -9 10 0
6 7 10 16 10 8 0 12 -4 9 -10z m232 -166 c-3 -3 -12 -4 -19 -1 -8 3 -5 6 6 6
11 1 17 -2 13 -5z"/>
<path d="M8128 2033 c6 -2 18 -2 25 0 6 3 1 5 -13 5 -14 0 -19 -2 -12 -5z"/>
<path d="M4030 2015 c0 -8 2 -15 4 -15 2 0 6 7 10 15 3 8 1 15 -4 15 -6 0 -10
-7 -10 -15z"/>
<path d="M4772 2018 c5 -15 28 -23 28 -10 0 5 -7 13 -16 16 -10 4 -14 1 -12
-6z"/>
<path d="M2725 1987 c-22 -5 -74 -11 -115 -11 -106 -3 -110 -4 -110 -26 0 -13
9 -22 28 -26 45 -9 72 -26 72 -45 0 -27 16 -32 115 -40 49 -4 110 -12 135 -17
25 -6 76 -12 115 -14 l69 -3 0 60 c-1 75 -10 102 -35 115 -26 14 -37 6 -44
-34 -10 -52 -45 -83 -91 -80 -62 4 -86 14 -79 33 20 51 12 105 -15 100 -3 -1
-23 -6 -45 -12z"/>
<path d="M4075 1990 c-3 -5 -1 -10 4 -10 6 0 11 5 11 10 0 6 -2 10 -4 10 -3 0
-8 -4 -11 -10z"/>
<path d="M3870 1890 c0 -5 15 -19 33 -31 17 -12 53 -42 78 -65 25 -23 66 -52
90 -64 67 -34 129 -78 183 -129 l49 -46 -7 40 c-4 22 -11 77 -15 123 -6 63
-13 86 -27 97 -23 17 -34 19 -34 4 0 -8 -4 -8 -15 1 -8 6 -19 9 -24 6 -6 -4
-27 1 -48 10 -21 8 -49 18 -63 20 -14 3 -29 9 -34 15 -14 13 -56 11 -56 -2 0
-7 -8 -6 -22 3 -28 18 -88 31 -88 18z"/>
<path d="M7388 1863 c6 -2 18 -2 25 0 6 3 1 5 -13 5 -14 0 -19 -2 -12 -5z"/>
<path d="M7325 1850 c-8 -13 5 -13 25 0 13 8 13 10 -2 10 -9 0 -20 -4 -23 -10z"/>
<path d="M7210 1840 c0 -5 4 -10 9 -10 6 0 13 5 16 10 3 6 -1 10 -9 10 -9 0
-16 -4 -16 -10z"/>
<path d="M7170 1825 c0 -8 7 -15 15 -15 9 0 12 6 9 15 -4 8 -10 15 -15 15 -5
0 -9 -7 -9 -15z"/>
<path d="M2346 1776 c6 -14 -38 -32 -94 -38 -20 -3 -13 -11 45 -55 37 -29 76
-59 86 -68 18 -16 18 -14 12 53 -5 44 -3 76 4 90 8 16 7 21 -5 26 -29 11 -54
7 -48 -8z"/>
<path d="M6914 1781 c19 -7 18 -8 -5 -16 -22 -8 -22 -8 11 -12 56 -6 68 -12
47 -24 -24 -14 -12 -29 24 -29 19 0 29 5 29 15 0 8 -5 15 -11 15 -6 0 -9 7 -6
15 5 10 -4 16 -28 21 -19 3 -32 10 -29 15 3 5 -7 9 -23 8 -23 0 -25 -2 -9 -8z"/>
<path d="M2469 1779 c-8 -28 -6 -95 2 -105 6 -7 11 -34 12 -59 2 -51 -12 -68
-52 -61 -19 3 -33 -5 -58 -33 -18 -20 -33 -38 -33 -41 0 -3 33 -4 73 -2 64 3
89 12 232 77 255 116 259 118 235 127 -11 4 -20 16 -20 27 0 15 -11 21 -47 30
-47 10 -106 15 -150 12 -15 -1 -23 -7 -23 -19 0 -27 -20 -42 -58 -42 -30 0
-33 2 -26 23 4 12 12 25 18 30 14 9 -11 27 -39 27 -11 0 -30 3 -42 6 -13 4
-23 5 -24 3z"/>
<path d="M6805 1770 c3 -5 13 -10 21 -10 8 0 14 5 14 10 0 6 -9 10 -21 10 -11
0 -17 -4 -14 -10z"/>
<path d="M8658 1680 c-3 -16 -1 -30 4 -30 13 0 5 -92 -9 -97 -7 -3 -13 -13
-13 -22 0 -13 2 -13 9 -2 6 9 10 5 13 -16 5 -37 0 -55 -14 -47 -5 4 -21 0 -35
-7 -20 -11 -26 -11 -33 1 -7 12 -3 16 18 20 21 4 28 11 30 33 1 15 -2 27 -8
27 -5 0 -10 -11 -10 -25 0 -21 -5 -25 -29 -25 -21 0 -32 -6 -36 -20 -9 -27
-23 -25 -31 5 -6 26 -20 33 -26 15 -2 -6 -14 -12 -28 -13 -14 -1 -36 -9 -50
-17 -18 -10 -83 -15 -240 -19 -265 -6 -218 -17 115 -27 173 -5 252 -3 320 7
50 7 98 13 107 12 14 -2 15 2 8 26 -4 15 -12 37 -18 47 -5 10 -15 59 -21 108
-12 99 -16 112 -23 66z"/>
<path d="M3984 1665 c-3 -8 -3 -19 1 -25 3 -5 -1 -13 -9 -16 -45 -17 -2 -81
104 -154 70 -48 117 -95 139 -137 l17 -34 30 44 c52 73 52 92 2 140 -73 71
-186 157 -206 157 -5 0 -17 9 -27 20 -21 24 -43 26 -51 5z"/>
<path d="M7170 1635 c15 -18 14 -19 -26 -33 -22 -7 -35 -7 -42 0 -7 7 -14 3
-22 -12 -16 -29 -6 -36 25 -16 21 14 28 14 45 4 15 -9 23 -10 28 -2 4 6 19 14
35 18 32 8 36 26 7 33 -11 3 -20 9 -20 14 0 5 -10 9 -21 9 -18 0 -19 -2 -9
-15z"/>
<path d="M6833 1603 c-7 -2 -13 -10 -13 -15 0 -21 -221 -298 -256 -320 -6 -4
-19 -19 -28 -33 l-17 -26 36 4 c20 3 40 8 44 13 5 5 37 43 72 84 35 41 68 80
75 85 6 6 31 37 56 70 26 33 62 75 82 94 19 19 33 38 30 43 -6 9 -61 10 -81 1z"/>
<path d="M2040 1549 c-52 -10 -113 -23 -135 -29 -22 -6 -49 -13 -60 -15 -50
-10 -97 -24 -102 -29 -3 -3 -2 -22 1 -42 7 -36 8 -36 45 -30 20 3 78 19 127
36 49 17 118 40 153 51 35 12 78 34 95 50 l31 29 -30 -1 c-16 -1 -73 -10 -125
-20z"/>
<path d="M3855 1560 c3 -5 8 -10 11 -10 2 0 4 5 4 10 0 6 -5 10 -11 10 -5 0
-7 -4 -4 -10z"/>
<path d="M1612 1443 c-17 -37 -29 -69 -27 -71 2 -2 17 6 33 18 24 18 29 28 30
71 0 27 0 49 -2 49 -2 0 -17 -30 -34 -67z m28 -13 c0 -5 -5 -10 -11 -10 -5 0
-7 5 -4 10 3 6 8 10 11 10 2 0 4 -4 4 -10z"/>
<path d="M7390 1490 c-20 -6 -15 -8 25 -9 36 0 46 2 35 9 -17 11 -25 11 -60 0z"/>
<path d="M2193 1483 c-18 -2 -33 -8 -33 -13 0 -5 -10 -11 -22 -14 -13 -3 10
-3 51 0 41 2 86 7 100 11 l26 7 -25 7 c-27 8 -47 8 -97 2z"/>
<path d="M7208 1483 c6 -2 18 -2 25 0 6 3 1 5 -13 5 -14 0 -19 -2 -12 -5z"/>
<path d="M7585 1474 c61 -7 120 -15 133 -17 12 -2 22 -1 22 2 0 15 -96 31
-178 30 l-87 -1 110 -14z"/>
<path d="M3887 1473 c-31 -5 -51 -35 -44 -65 6 -22 -51 -88 -77 -88 -11 0 -13
-8 -9 -36 3 -20 0 -45 -7 -59 -15 -28 -8 -53 17 -62 10 -3 28 -15 40 -25 17
-16 25 -18 41 -9 11 6 27 8 35 6 7 -3 20 1 27 10 18 21 47 19 53 -5 3 -11 12
-20 21 -20 9 0 18 -11 22 -25 3 -14 10 -25 15 -25 4 0 18 -10 29 -22 15 -16
20 -31 16 -50 -6 -33 5 -35 42 -9 15 10 36 20 46 22 10 2 24 13 30 24 6 11 16
23 23 27 6 5 9 18 5 30 -4 16 -2 19 8 13 9 -6 11 -4 5 5 -4 7 -7 33 -6 57 0
24 -5 56 -14 72 -17 34 -80 101 -95 101 -5 0 -10 8 -10 18 -1 16 -79 82 -99
82 -5 0 -11 4 -13 9 -4 12 -48 24 -48 13 0 -5 7 -15 15 -22 38 -31 -1 -55 -41
-25 -18 14 -18 16 -1 29 17 13 24 37 10 35 -5 -1 -20 -4 -36 -6z m168 -239
c64 -23 122 -95 107 -134 -8 -21 -8 -21 -22 4 -7 14 -19 26 -26 26 -6 0 -27
14 -45 31 -23 22 -41 30 -63 28 -17 -1 -46 2 -63 6 -29 7 -33 12 -33 40 l0 33
63 -14 c34 -7 71 -16 82 -20z"/>
<path d="M7853 1443 c9 -2 23 -2 30 0 6 3 -1 5 -18 5 -16 0 -22 -2 -12 -5z"/>
<path d="M2565 1280 c3 -5 11 -10 16 -10 6 0 7 5 4 10 -3 6 -11 10 -16 10 -6
0 -7 -4 -4 -10z"/>
<path d="M8266 1232 c-2 -4 -2 -26 1 -49 5 -40 6 -41 42 -39 20 1 42 5 49 9
15 10 16 59 0 75 -13 13 -84 16 -92 4z"/>
<path d="M7985 1221 c-35 -5 -40 -9 -41 -34 -1 -29 18 -46 52 -46 10 -1 26 -1
34 -1 16 -1 110 17 150 29 14 3 25 13 25 21 0 12 -17 16 -75 18 -41 2 -79 7
-84 12 -6 6 -12 9 -15 9 -4 -1 -24 -5 -46 -8z m0 -41 c3 -5 -1 -10 -9 -10 -9
0 -16 5 -16 10 0 6 4 10 9 10 6 0 13 -4 16 -10z m45 0 c0 -5 -7 -10 -15 -10
-8 0 -15 5 -15 10 0 6 7 10 15 10 8 0 15 -4 15 -10z"/>
<path d="M6713 1213 c-91 -3 -103 -6 -108 -23 -5 -15 -15 -20 -45 -20 -33 0
-37 -3 -33 -20 4 -15 14 -20 38 -20 27 0 34 -4 37 -22 3 -22 7 -23 118 -26 63
-1 147 1 185 5 61 7 70 11 73 29 3 20 10 21 215 30 117 5 246 9 287 9 60 0 75
3 75 15 0 13 -37 15 -291 11 -290 -4 -291 -4 -297 18 -6 23 13 22 -254 14z"/>
<path d="M2705 1164 c-13 -32 -18 -36 -45 -32 -28 4 -30 3 -30 -29 0 -29 3
-32 18 -25 9 5 23 7 31 4 7 -2 17 1 21 9 7 10 12 10 23 1 12 -10 16 -10 20 1
5 14 -11 107 -19 107 -2 0 -11 -16 -19 -36z"/>
<path d="M6478 1173 c6 -2 18 -2 25 0 6 3 1 5 -13 5 -14 0 -19 -2 -12 -5z"/>
<path d="M6370 1125 c0 -4 49 -28 80 -38 8 -3 0 -5 -18 -4 -24 1 -37 -4 -44
-17 -6 -10 -26 -36 -44 -56 -19 -21 -34 -43 -34 -49 0 -6 -4 -11 -9 -11 -5 0
-35 -32 -66 -71 -40 -49 -49 -66 -31 -54 14 10 26 21 26 25 0 4 23 19 50 34
53 29 196 167 206 200 3 10 2 21 -3 26 -8 8 -113 22 -113 15z m-77 -210 c-3
-9 -8 -14 -10 -11 -3 3 -2 9 2 15 9 16 15 13 8 -4z"/>
<path d="M9285 1013 c3 -43 10 -174 15 -292 6 -117 13 -217 15 -221 3 -4 -2
-13 -10 -20 -31 -25 -424 -8 -794 36 -121 14 -125 14 -143 -6 -25 -26 -29 -25
-26 7 3 23 -2 28 -30 34 -33 7 -33 7 -17 -17 12 -18 13 -29 5 -44 -14 -26 28
-28 -389 20 -96 11 -178 17 -183 12 -12 -12 -181 6 -193 21 -6 8 -66 20 -155
30 -80 9 -201 24 -270 33 -146 19 -159 28 -161 108 -1 29 -4 39 -6 24 -5 -35
6 -35 -283 3 -403 53 -390 52 -390 26 0 -7 -9 -23 -20 -37 -11 -14 -20 -28
-20 -32 0 -13 66 -27 155 -33 50 -4 135 -13 190 -20 55 -8 131 -16 169 -19 48
-4 73 -10 78 -21 5 -9 23 -15 43 -15 19 0 37 -5 41 -11 5 -9 -1 -10 -21 -5
-15 4 -77 11 -138 17 -60 5 -119 12 -131 14 -12 3 -94 14 -183 25 -90 10 -168
22 -175 26 -7 5 -22 10 -33 11 -11 1 -46 8 -77 14 -61 12 -112 6 -105 -14 5
-16 308 -60 952 -137 187 -23 502 -61 700 -85 292 -36 898 -105 1539 -175 67
-7 93 -6 104 2 15 13 14 53 -8 368 -6 74 -12 205 -15 290 -4 130 -7 156 -20
158 -13 3 -15 -7 -10 -75z m-2075 -447 c151 -17 298 -41 307 -50 23 -23 -375
29 -492 64 -36 11 -30 11 185 -14z m745 -98 c44 -6 85 -15 90 -21 6 -6 -10 -6
-43 -2 -63 8 -85 11 -172 20 -36 4 -74 11 -85 16 -24 10 96 3 210 -13z"/>
<path d="M3775 1000 c-11 -17 -69 -42 -102 -44 -12 0 -28 -9 -35 -18 -20 -26
-69 -42 -80 -26 -6 10 -8 9 -8 -3 0 -9 -12 -21 -27 -27 -44 -17 -105 -32 -113
-27 -4 3 -13 -2 -19 -9 -7 -8 -59 -33 -116 -56 -58 -23 -105 -44 -105 -46 0
-10 209 29 275 51 22 8 65 16 95 20 68 7 159 35 266 82 81 35 81 35 75 66 -6
30 -41 53 -41 28 0 -19 -48 -13 -52 7 -3 15 -5 15 -13 2z m82 -47 c3 -7 -4 -9
-16 -6 -12 3 -18 9 -15 15 7 11 26 6 31 -9z"/>
<path d="M0 932 c0 -5 7 -15 15 -22 8 -7 15 -9 15 -6 0 4 -7 14 -15 22 -8 9
-15 11 -15 6z"/>
<path d="M7013 838 c-13 -6 -23 -15 -23 -20 0 -4 -5 -8 -11 -8 -6 0 -9 7 -5
15 3 8 2 15 -3 15 -5 0 -14 -7 -21 -15 -10 -12 -10 -15 4 -15 11 0 16 -9 16
-33 0 -45 6 -49 47 -32 25 11 55 13 107 8 52 -4 75 -2 81 6 11 19 1 23 -80 31
-80 8 -99 15 -75 30 20 13 66 12 113 -1 49 -13 58 -5 18 15 -34 18 -134 20
-168 4z"/>
<path d="M50 800 c0 -5 9 -19 20 -30 28 -28 16 -43 -31 -37 -45 6 -50 -7 -18
-41 25 -27 21 -53 -4 -28 -16 16 -17 14 -17 -38 0 -31 4 -56 9 -56 5 0 11 -9
14 -20 3 -12 14 -20 26 -20 11 0 26 -7 33 -15 38 -46 61 -65 84 -71 39 -10 40
2 0 42 -20 20 -36 41 -36 46 0 16 -48 69 -52 57 -6 -19 -38 3 -38 27 0 17 7
25 26 30 14 4 29 16 33 27 7 18 10 15 29 -24 25 -50 58 -71 88 -55 10 6 20 12
22 13 2 1 -1 11 -8 22 -13 25 -45 28 -58 5 -8 -14 -11 -12 -17 12 -5 16 -7 35
-6 42 1 8 -2 19 -7 25 -5 7 -13 27 -17 45 -7 32 -29 52 -59 52 -9 0 -16 -4
-16 -10z"/>
<path d="M543 784 c-3 -9 -1 -19 4 -23 5 -3 11 -26 11 -50 1 -24 3 -46 5 -47
7 -7 77 9 77 17 0 5 -7 9 -15 9 -18 0 -20 27 -2 33 9 3 9 8 -2 21 -8 9 -20 15
-28 12 -8 -3 -11 -1 -8 5 7 11 -12 39 -27 39 -5 0 -11 -7 -15 -16z"/>
<path d="M825 790 c-7 -12 2 -30 16 -30 12 0 12 27 0 35 -5 3 -12 1 -16 -5z"/>
<path d="M354 745 c-7 -30 -7 -30 24 -39 18 -6 22 -3 22 13 0 11 -5 23 -10 26
-6 4 -8 11 -5 16 4 5 -1 9 -9 9 -9 0 -18 -11 -22 -25z"/>
<path d="M7275 760 c16 -8 295 -40 302 -36 1 1 -7 12 -17 26 -17 23 -20 24
-32 9 -11 -14 -23 -16 -78 -9 -129 15 -196 19 -175 10z"/>
<path d="M1406 741 c-4 -7 -5 -15 -2 -18 9 -9 19 4 14 18 -4 11 -6 11 -12 0z"/>
<path d="M7752 723 c-12 -21 -11 -23 15 -23 15 0 53 -2 83 -5 41 -3 47 -2 25
4 -16 5 -47 9 -67 10 -26 1 -38 6 -40 19 -3 15 -6 14 -16 -5z"/>
<path d="M180 722 c0 -12 34 -42 48 -42 7 0 12 -11 12 -25 0 -16 6 -25 15 -25
8 0 15 6 15 13 0 15 -27 57 -48 75 -18 14 -42 16 -42 4z"/>
<path d="M7651 719 c13 -8 88 -14 78 -5 -2 2 -24 6 -48 9 -29 4 -40 2 -30 -4z"/>
<path d="M8156 711 c-7 -11 27 -21 74 -21 19 0 46 -7 60 -15 40 -22 4 -29 -81
-16 -39 7 -73 10 -75 8 -2 -2 3 -13 11 -24 10 -15 31 -23 72 -28 32 -4 64 -12
71 -17 7 -6 13 -9 15 -7 1 2 7 13 13 24 17 31 38 24 44 -15 4 -27 7 -32 15
-20 5 8 10 22 10 30 0 10 9 14 30 13 17 -2 133 -12 258 -23 126 -11 231 -20
233 -20 2 0 4 9 4 20 0 13 -7 20 -20 20 -11 0 -20 -4 -20 -9 0 -12 -93 -1
-102 13 -5 8 -10 8 -18 0 -12 -12 -70 -6 -70 7 0 5 -9 9 -20 9 -11 0 -20 -5
-20 -10 0 -13 -82 -1 -93 14 -6 8 -10 7 -14 -1 -7 -18 -23 -16 -23 2 0 8 -4
15 -10 15 -5 0 -10 -4 -10 -9 0 -15 -50 -7 -60 9 -9 13 -11 13 -20 0 -8 -13
-11 -13 -22 1 -29 36 -216 76 -232 50z"/>
<path d="M2630 698 c-42 -10 -211 -39 -260 -44 -88 -10 -170 -27 -176 -35 -9
-15 -34 -10 -34 6 0 17 -55 21 -65 5 -3 -5 -13 -10 -20 -10 -8 0 -48 -23 -89
-51 -70 -47 -76 -49 -98 -36 -46 29 -74 29 -93 1 -19 -30 -138 -90 -144 -73
-2 6 3 15 10 20 11 7 12 9 1 9 -8 0 -19 -13 -25 -30 -20 -53 -112 -70 -112
-20 0 18 -5 25 -19 23 -11 -1 -30 3 -43 8 -14 5 -23 5 -23 -1 0 -6 -13 -10
-29 -10 -17 0 -33 -4 -36 -10 -10 -16 -43 -12 -54 7 -9 16 -11 16 -28 1 -10
-8 -34 -19 -53 -23 -59 -11 -70 -16 -70 -30 0 -13 -24 -26 -44 -24 -5 0 -12
-5 -17 -12 -6 -10 -10 -10 -23 0 -13 11 -18 10 -31 -2 -8 -9 -15 -18 -15 -22
0 -10 -28 -35 -39 -35 -6 0 -11 9 -11 19 0 11 -7 27 -16 36 -10 10 -15 27 -12
48 3 31 2 33 -24 29 -18 -3 -28 -11 -30 -26 -2 -14 -11 -22 -28 -24 -14 -2
-31 -11 -37 -19 -11 -15 -13 -15 -19 0 -9 25 -27 21 -21 -4 5 -19 3 -20 -28
-15 -22 5 -45 2 -63 -8 -28 -15 -42 -13 -42 6 0 4 7 8 16 8 11 0 7 9 -15 29
-17 16 -31 38 -31 49 0 12 -9 22 -23 26 -12 3 -32 14 -44 26 -37 34 -47 26
-39 -32 4 -29 7 -62 9 -73 1 -11 9 -25 17 -32 13 -11 12 -12 -6 -13 -20 0 -44
-35 -44 -65 0 -18 -27 -19 -44 -2 -17 17 -2 59 18 51 18 -7 23 1 31 58 6 40 4
49 -10 54 -9 4 -27 1 -39 -6 -13 -6 -34 -10 -48 -9 -30 4 -58 -16 -58 -42 0
-11 -4 -19 -9 -19 -5 0 -9 -14 -9 -30 1 -17 -4 -36 -10 -42 -7 -7 -12 -25 -12
-41 0 -24 3 -28 18 -22 26 11 76 25 77 22 1 -1 9 -14 18 -29 22 -36 21 -48 -3
-48 -11 0 -23 -7 -26 -15 -10 -25 -201 -4 -251 28 -7 4 -20 24 -30 44 -9 20
-25 38 -35 41 -10 2 -15 8 -12 13 3 5 -6 14 -20 20 -14 7 -28 20 -31 31 -4 10
-11 18 -16 18 -18 0 -9 -43 16 -72 28 -33 32 -48 11 -48 -8 0 -19 12 -24 28
-8 20 -11 -8 -11 -115 l-1 -143 230 0 230 0 167 51 c201 60 402 125 693 224
467 157 1033 334 1155 359 114 25 183 45 191 57 9 15 3 17 -36 7z"/>
<path d="M7933 683 c9 -2 23 -2 30 0 6 3 -1 5 -18 5 -16 0 -22 -2 -12 -5z"/>
<path d="M344 547 c3 -10 6 -23 6 -28 0 -5 5 -9 10 -9 14 0 12 13 -6 36 -14
17 -15 17 -10 1z"/>
<path d="M561 534 c0 -11 3 -14 6 -6 3 7 2 16 -1 19 -3 4 -6 -2 -5 -13z"/>
<path d="M1615 510 c-10 -11 -14 -20 -9 -20 5 0 17 9 27 20 9 11 13 20 8 20
-4 0 -16 -9 -26 -20z"/>
<path d="M6 503 c-10 -11 -6 -24 5 -17 8 4 7 0 0 -15 -10 -19 -8 -25 20 -49
43 -37 57 -44 69 -37 15 9 12 52 -4 67 -44 42 -79 62 -90 51z"/>
<path d="M256 452 c-3 -6 -1 -14 5 -17 15 -10 25 3 12 16 -7 7 -13 7 -17 1z"/>
<path d="M150 419 c0 -14 6 -33 13 -44 13 -17 14 -17 19 2 3 11 -3 31 -13 44
l-19 24 0 -26z"/>
<path d="M0 376 c0 -9 5 -16 10 -16 6 0 10 4 10 9 0 6 -4 13 -10 16 -5 3 -10
-1 -10 -9z"/>
<path d="M225 301 c-10 -17 13 -58 37 -64 37 -10 38 6 2 40 -18 18 -36 29 -39
24z"/>
</g>
</svg>
